<svg version="1.1" id="Layer_1" xmlns="http://www.w3.org/2000/svg" xmlns:xlink="http://www.w3.org/1999/xlink" x="0px" y="0px"
	 width="100%" viewBox="0 0 811 456" enable-background="new 0 0 811 456" xml:space="preserve">
<path fill="#7FD6C2" opacity="1.000000" stroke="none" 
	d="
M540.000000,457.000000 
	C360.000000,457.000000 180.500000,457.000000 1.000000,457.000000 
	C1.000000,305.000000 1.000000,153.000000 1.000000,1.000000 
	C271.333344,1.000000 541.666687,1.000000 812.000000,1.000000 
	C812.000000,153.000000 812.000000,305.000000 812.000000,457.000000 
	C721.500000,457.000000 631.000000,457.000000 540.000000,457.000000 
M98.457878,247.626938 
	C98.420723,248.392700 98.383568,249.158478 98.300644,250.869049 
	C98.315979,283.217743 98.331314,315.566437 98.159058,348.847137 
	C98.116951,360.975983 98.120232,373.105255 98.003281,385.233398 
	C97.970955,388.585815 99.292793,390.063873 102.724068,390.018921 
	C115.180847,389.855835 127.639336,389.823456 141.020508,389.788666 
	C202.761124,389.804779 264.501740,389.826447 326.242371,389.806732 
	C327.872833,389.806213 329.503143,389.355865 331.917694,389.324219 
	C334.225037,389.500244 336.532349,389.829651 338.839722,389.830231 
	C441.779388,389.855713 544.719055,389.852356 647.658691,389.852264 
	C673.975220,389.852234 700.292053,389.791779 726.607971,389.915192 
	C730.600647,389.933899 732.223938,388.849091 732.145935,384.560455 
	C731.882385,370.074036 731.975037,355.581177 731.977295,340.144806 
	C731.979919,278.902954 731.982483,217.661087 731.538269,155.652023 
	C731.689209,149.294525 731.840149,142.937042 731.789734,135.569672 
	C731.879333,115.277565 731.812683,94.982750 732.165588,74.695221 
	C732.256653,69.460747 730.241455,68.177490 725.467712,68.219322 
	C706.171692,68.388428 686.873291,68.277527 667.575867,68.310486 
	C666.101135,68.313004 664.626953,68.631218 662.302979,68.954597 
	C655.395813,68.981163 648.488708,69.007729 640.572021,68.946754 
	C638.242004,68.881195 635.911926,68.758408 633.581909,68.758255 
	C493.784027,68.749077 353.986115,68.739357 214.188278,68.830231 
	C211.530624,68.831955 208.873749,70.034081 206.216507,70.676132 
	C208.772842,71.788345 211.229080,73.390511 213.901123,73.936295 
	C238.213928,78.902405 261.498077,86.630806 282.900726,99.852478 
	C282.763367,102.004478 282.502625,104.156723 282.506836,106.308441 
	C282.588013,147.775055 282.638397,189.241989 282.900726,230.707550 
	C282.927307,234.909378 281.662598,236.739227 277.617706,238.057373 
	C251.683533,246.508881 225.840225,255.239944 199.994247,263.959747 
	C198.226334,264.556183 196.679443,265.807800 195.029770,266.754700 
	C196.413879,268.246368 197.581528,270.052979 199.217865,271.177673 
	C208.633179,277.649017 218.159485,283.958862 228.181885,290.681458 
	C224.012817,294.071198 220.306946,297.084320 215.854553,299.681793 
	C214.886597,299.462067 213.928009,299.181030 212.949310,299.031677 
	C195.214996,296.324371 177.301468,294.459442 159.790070,290.713593 
	C140.992645,286.692688 125.153793,277.180695 115.939262,259.772827 
	C136.255096,259.752319 156.571182,259.785431 176.886673,259.692047 
	C190.057556,259.631531 202.423859,247.953598 202.447891,235.277222 
	C202.541306,185.985611 202.536057,136.693634 202.443878,87.402008 
	C202.422699,76.076515 196.046173,69.877586 184.656418,69.822296 
	C164.678101,69.725311 144.698700,69.730782 124.720299,69.819885 
	C109.688278,69.886925 98.294991,81.381714 98.291718,96.290398 
	C98.283714,132.759674 98.244164,169.229050 98.312416,205.698181 
	C98.338264,219.511139 98.625275,233.323593 98.457878,247.626938 
M236.291824,213.042938 
	C240.466614,214.945206 239.773453,211.299454 240.031723,210.490555 
	C242.252899,208.698700 243.591812,207.618561 244.930740,206.538406 
	C243.630112,205.439041 242.329468,204.339691 240.254059,202.585464 
	C240.013077,202.211273 239.142899,200.860092 238.272736,199.508896 
	C237.399475,200.574799 236.624146,201.746964 235.620773,202.671707 
	C234.869217,203.364349 233.735809,203.630524 232.934891,204.285294 
	C232.172607,204.908463 231.102325,205.803452 231.122757,206.552887 
	C231.143158,207.300766 232.383759,207.987137 233.027130,208.752838 
	C234.019211,209.933594 234.958221,211.158966 236.291824,213.042938 
M220.678558,105.084457 
	C220.576111,106.321426 220.473663,107.558395 220.371201,108.795364 
	C221.493454,108.663971 222.952774,108.934975 223.676956,108.328362 
	C226.199600,106.215240 228.583420,103.900520 230.762802,101.435074 
	C231.425095,100.685860 231.256149,99.201859 231.467911,98.054398 
	C230.211914,98.215477 228.637390,97.955734 227.761368,98.618813 
	C225.406143,100.401558 223.349319,102.578545 220.678558,105.084457 
M236.792374,161.704437 
	C233.579285,159.092468 230.444702,156.371231 227.087723,153.959595 
	C226.406357,153.470139 224.886108,154.148407 223.752594,154.288345 
	C223.996902,155.262329 223.918518,156.616241 224.541016,157.144958 
	C227.327591,159.511703 230.212540,161.806564 233.309235,163.729065 
	C233.968155,164.138107 235.660706,162.882217 236.792374,161.704437 
M241.364792,128.960327 
	C237.313431,128.967804 233.258453,128.891586 229.214386,129.067047 
	C228.557800,129.095535 227.949631,130.239349 227.319092,130.867645 
	C228.049255,131.580811 228.752792,132.872025 229.514191,132.907104 
	C232.815659,133.059204 236.160675,133.050186 239.428345,132.625885 
	C240.298325,132.512924 240.949951,130.718277 241.364792,128.960327 
z"/>
<path fill="#3E404D" opacity="1.000000" stroke="none" 
	d="
M731.931519,341.090759 
	C731.975037,355.581177 731.882385,370.074036 732.145935,384.560455 
	C732.223938,388.849091 730.600647,389.933899 726.607971,389.915192 
	C700.292053,389.791779 673.975220,389.852234 647.658691,389.852264 
	C544.719055,389.852356 441.779388,389.855713 338.839722,389.830231 
	C336.532349,389.829651 334.225037,389.500244 331.404663,388.844788 
	C330.711487,387.346893 330.531342,386.328369 330.469910,384.833527 
	C330.588593,378.953308 330.588593,373.549469 330.588593,367.776459 
	C324.443634,367.776459 319.121216,367.604584 313.816010,367.832947 
	C309.845856,368.003845 308.468079,366.418213 308.701294,362.547729 
	C308.951447,358.396271 308.421478,354.183838 308.841980,350.060242 
	C309.337372,345.202484 307.275299,344.062347 302.877930,344.335022 
	C297.731293,344.654175 292.545471,344.281250 287.384308,344.446777 
	C283.910919,344.558167 282.653656,343.176941 282.772797,339.726624 
	C282.970673,333.997040 282.826691,328.255646 282.826691,322.519196 
	C282.465729,322.419434 282.104767,322.319641 281.743805,322.219849 
	C278.782990,328.088043 275.822174,333.956207 272.579926,340.032654 
	C271.272552,342.144562 270.385559,344.142303 269.178528,345.923187 
	C268.132782,347.466095 266.724152,348.763092 265.475952,350.168793 
	C264.368988,348.630096 262.949158,347.228180 262.206604,345.530121 
	C257.912415,335.709747 253.778000,325.819519 249.429565,315.576172 
	C247.689484,317.005219 246.403641,318.019958 245.162567,319.086792 
	C233.033951,329.512817 220.799316,339.820160 208.861404,350.460358 
	C205.450562,353.500427 203.591064,353.126831 200.943878,349.718750 
	C196.553818,344.066803 191.886292,338.607086 187.028091,333.350677 
	C184.074432,330.154907 184.253937,328.188599 187.649948,325.347351 
	C197.468994,317.132324 206.973236,308.541016 216.601074,300.097412 
	C220.306946,297.084320 224.012817,294.071198 228.181885,290.681458 
	C218.159485,283.958862 208.633179,277.649017 199.217865,271.177673 
	C197.581528,270.052979 196.413879,268.246368 195.029785,266.754700 
	C196.679443,265.807800 198.226334,264.556183 199.994247,263.959747 
	C225.840225,255.239944 251.683533,246.508881 277.617706,238.057373 
	C281.662598,236.739227 282.927307,234.909378 282.900726,230.707550 
	C282.638397,189.241989 282.588013,147.775055 282.506836,106.308441 
	C282.502625,104.156723 282.763367,102.004478 283.389191,99.346245 
	C285.853699,98.683533 287.829620,98.391647 289.805817,98.389992 
	C389.193298,98.307045 488.580811,98.231300 587.968323,98.256073 
	C591.721985,98.257004 594.351196,97.389999 596.933105,94.397232 
	C605.805542,84.112854 616.878052,76.899841 629.785278,72.599060 
	C633.680786,71.301033 637.647461,70.216576 641.581543,69.034302 
	C648.488708,69.007729 655.395813,68.981163 663.129883,68.934204 
	C665.583130,69.238327 667.213745,69.542862 668.835144,69.890305 
	C699.060913,76.367172 718.882935,94.508369 728.789185,123.613106 
	C730.218445,127.812065 730.941406,132.251419 731.991150,136.579544 
	C731.840149,142.937042 731.689209,149.294525 731.458008,156.336899 
	C723.316833,197.864899 697.570312,219.185898 656.791687,224.265488 
	C656.899841,226.420227 657.006714,228.548370 657.012756,231.166046 
	C656.867737,251.475967 656.823608,271.296356 656.509521,290.927979 
	C655.002747,288.752716 653.765869,286.766266 652.500000,284.263245 
	C652.471069,263.966583 652.471069,244.186462 652.471069,224.090302 
	C546.396790,224.090302 440.854492,224.090302 335.202209,224.090302 
	C335.202209,277.957367 335.202209,331.537537 335.202209,385.123901 
	C441.010529,385.123901 546.542542,385.123901 652.587830,385.123901 
	C652.587830,354.578247 652.587830,324.442535 652.856079,294.526367 
	C654.405945,295.903839 655.687500,297.061737 656.922119,298.672546 
	C656.875183,326.958893 656.875183,354.792358 656.875183,382.880066 
	C657.988525,382.661591 658.519531,382.691010 658.896667,382.464264 
	C681.950378,368.603394 704.991516,354.721619 728.327332,340.821411 
	C729.724426,340.897644 730.827942,340.994202 731.931519,341.090759 
M477.500031,148.142838 
	C430.095428,148.142838 382.690796,148.142838 335.313873,148.142838 
	C335.313873,172.237854 335.313873,195.627472 335.313873,218.795731 
	C432.239929,218.795731 528.780151,218.795731 626.352295,218.795731 
	C595.516235,204.597092 579.282654,181.351562 576.520630,148.142868 
	C543.730835,148.142868 511.115448,148.142868 477.500031,148.142838 
M589.584412,112.225807 
	C584.584229,122.075615 581.499634,132.384201 581.565308,143.944016 
	C583.883057,143.944016 585.691223,143.943985 587.499451,143.944016 
	C608.644592,143.944336 629.791077,144.073196 650.933777,143.845871 
	C655.648438,143.795197 656.915161,145.410156 656.876709,149.899719 
	C656.697144,170.876801 656.797424,191.856262 656.797668,212.834885 
	C656.797668,214.772415 656.797607,216.709946 656.797607,218.871918 
	C659.476868,218.871918 661.458008,219.063156 663.392639,218.843796 
	C705.152954,214.108261 734.974182,173.090469 726.495056,132.103195 
	C720.007568,100.743042 696.335144,78.423523 664.236023,73.402321 
	C635.052429,68.837196 605.345337,84.097252 589.584412,112.225807 
M495.500000,102.939049 
	C426.119965,102.939049 356.739960,102.939049 287.346252,102.939049 
	C287.346252,126.983337 287.346252,150.365707 287.346252,173.739960 
	C294.440826,173.739960 301.189941,173.739960 308.372711,173.739960 
	C308.372711,158.797180 308.370911,144.171646 308.373444,129.546097 
	C308.374786,121.823402 308.378204,121.819275 315.894135,121.819176 
	C394.672333,121.818146 473.450562,121.818611 552.228760,121.817978 
	C553.727661,121.817970 555.245117,121.948723 556.718445,121.752411 
	C557.580750,121.637505 558.809265,121.208153 559.128113,120.556046 
	C561.921326,114.843338 564.546509,109.048470 567.378662,102.939041 
	C543.450989,102.939041 519.975464,102.939041 495.500000,102.939049 
M330.260193,191.401871 
	C330.260315,177.743546 330.254272,164.085205 330.263245,150.426880 
	C330.267548,143.924438 330.280487,143.913864 336.833893,143.913605 
	C407.290863,143.910934 477.747864,143.911865 548.204834,143.911789 
	C550.323486,143.911789 552.442139,143.911789 554.654968,143.911789 
	C555.511597,137.790009 556.286194,132.254791 557.107971,126.382126 
	C475.646942,126.382126 394.618073,126.382126 313.333374,126.382126 
	C313.333374,150.019730 313.333374,173.377777 313.333374,197.205597 
	C317.668365,197.205597 321.653625,196.972641 325.598541,197.271835 
	C329.460663,197.564743 330.773499,195.980499 330.260193,191.401871 
M587.578735,175.819305 
	C599.723694,201.970535 628.679871,221.333038 651.738770,218.677979 
	C651.738770,195.340698 651.738770,171.998901 651.738770,148.727753 
	C628.150330,148.727753 604.937134,148.727753 581.433716,148.727753 
	C581.551025,158.240982 583.802368,166.813446 587.578735,175.819305 
M312.945038,297.500000 
	C312.945038,319.400543 312.945038,341.301056 312.945038,363.175873 
	C319.166718,363.175873 324.627197,363.175873 330.386749,363.175873 
	C330.386749,319.420563 330.386749,275.915039 330.386749,231.705551 
	C329.630249,232.644882 329.204529,233.052841 328.920868,233.542999 
	C312.943848,261.147858 312.945038,261.148529 312.945038,293.502258 
	C312.945038,294.501495 312.945038,295.500763 312.945038,297.500000 
M721.326782,385.571472 
	C723.429016,385.571472 725.531250,385.571472 727.593506,385.571472 
	C727.593506,372.268158 727.593506,359.726349 727.593506,346.328918 
	C705.948242,359.310760 684.936768,371.912476 663.925293,384.514191 
	C664.007324,384.866547 664.089417,385.218872 664.171509,385.571228 
	C682.902588,385.571228 701.633667,385.571228 721.326782,385.571472 
M300.425110,178.262604 
	C296.014709,178.262604 291.604309,178.262604 287.285431,178.262604 
	C287.285431,197.412506 287.285431,215.772446 287.285431,234.684982 
	C293.502686,232.628967 299.251282,230.552353 305.111511,228.863083 
	C308.097809,228.002258 308.885956,226.403473 308.801636,223.482330 
	C308.609802,216.837387 308.740906,210.183121 308.740875,203.532654 
	C308.740845,195.276932 308.740875,187.021194 308.740875,179.243408 
	C307.464996,178.635574 307.175507,178.384979 306.877197,178.373993 
	C305.050995,178.306702 303.222748,178.293701 300.425110,178.262604 
M296.328064,294.833435 
	C286.213593,308.397797 285.543671,323.810211 287.552673,339.852600 
	C294.440186,339.852600 301.337860,339.852600 308.490601,339.852600 
	C308.490601,317.601624 308.490601,295.618591 308.490601,273.635559 
	C308.258026,273.533752 308.025482,273.431976 307.792908,273.330170 
	C304.104889,280.290497 300.416870,287.250793 296.328064,294.833435 
M316.571075,201.592346 
	C314.334839,201.398712 312.812042,201.674026 312.895508,204.660553 
	C313.089844,211.613586 312.957458,218.575775 312.957458,226.064987 
	C318.327667,224.285568 323.348022,222.706726 328.286560,220.903732 
	C329.125824,220.597336 330.151703,219.345490 330.177277,218.502716 
	C330.345825,212.941040 330.264343,207.371780 330.264343,201.590698 
	C325.506836,201.590698 321.531219,201.590698 316.571075,201.592346 
z"/>
<path fill="#F2F5E5" opacity="1.000000" stroke="none" 
	d="
M330.351227,385.309875 
	C330.531342,386.328369 330.711487,387.346893 331.012573,388.740356 
	C329.503143,389.355865 327.872833,389.806213 326.242371,389.806732 
	C264.501740,389.826447 202.761124,389.804779 140.523224,389.352081 
	C138.849640,383.272003 138.558395,377.249420 136.333389,372.055145 
	C129.274429,355.576233 115.568886,348.797394 98.346649,347.915131 
	C98.331314,315.566437 98.315979,283.217743 98.588791,250.290283 
	C99.029823,249.594589 99.182716,249.477676 99.562454,249.633270 
	C102.743759,256.472778 108.309120,259.085785 115.020508,259.963196 
	C125.153793,277.180695 140.992645,286.692688 159.790070,290.713593 
	C177.301468,294.459442 195.214996,296.324371 212.949310,299.031677 
	C213.928009,299.181030 214.886597,299.462067 216.227814,299.889587 
	C206.973236,308.541016 197.468994,317.132324 187.649948,325.347351 
	C184.253937,328.188599 184.074432,330.154907 187.028091,333.350677 
	C191.886292,338.607086 196.553818,344.066803 200.943878,349.718750 
	C203.591064,353.126831 205.450562,353.500427 208.861404,350.460358 
	C220.799316,339.820160 233.033951,329.512817 245.162567,319.086792 
	C246.403641,318.019958 247.689484,317.005219 249.429565,315.576172 
	C253.778000,325.819519 257.912415,335.709747 262.206604,345.530121 
	C262.949158,347.228180 264.368988,348.630096 265.475952,350.168793 
	C266.724152,348.763092 268.132782,347.466095 269.178528,345.923187 
	C270.385559,344.142303 271.272552,342.144562 272.757751,340.336548 
	C277.823975,346.918396 282.320435,353.486664 287.060272,359.874329 
	C297.876251,374.450623 311.129669,384.988342 330.351227,385.309875 
M157.084412,329.820312 
	C156.923889,330.279541 156.901978,330.925446 156.578690,331.165436 
	C155.220917,332.173340 153.773056,333.059845 152.358185,333.990814 
	C153.774078,334.987427 155.189972,335.984039 156.104446,336.627716 
	C157.250412,338.243652 158.158157,339.523682 159.065903,340.803711 
	C160.289505,339.468567 161.513107,338.133392 162.736710,336.798248 
	C162.759018,336.854584 162.781311,336.910950 162.803619,336.967285 
	C164.173752,335.680603 165.543884,334.393890 166.252228,333.728699 
	C163.683304,331.067352 162.024704,329.349060 159.540726,326.775696 
	C159.123978,327.161743 158.115860,328.095612 157.084412,329.820312 
z"/>
<path fill="#F3F6E6" opacity="1.000000" stroke="none" 
	d="
M641.076782,68.990524 
	C637.647461,70.216576 633.680786,71.301033 629.785278,72.599060 
	C616.878052,76.899841 605.805542,84.112854 596.933105,94.397232 
	C594.351196,97.389999 591.721985,98.257004 587.968323,98.256073 
	C488.580811,98.231300 389.193298,98.307045 289.805817,98.389992 
	C287.829620,98.391647 285.853699,98.683533 283.484009,98.948807 
	C261.498077,86.630806 238.213928,78.902405 213.901123,73.936295 
	C211.229080,73.390511 208.772842,71.788345 206.216507,70.676132 
	C208.873749,70.034081 211.530624,68.831955 214.188278,68.830231 
	C353.986115,68.739357 493.784027,68.749077 633.581909,68.758255 
	C635.911926,68.758408 638.242004,68.881195 641.076782,68.990524 
z"/>
<path fill="#3B3F4D" opacity="1.000000" stroke="none" 
	d="
M115.479889,259.868011 
	C108.309120,259.085785 102.743759,256.472778 99.539108,249.350616 
	C99.123695,248.242371 98.958473,247.689331 98.793251,247.136276 
	C98.625275,233.323593 98.338264,219.511139 98.312416,205.698181 
	C98.244164,169.229050 98.283714,132.759674 98.291718,96.290398 
	C98.294991,81.381714 109.688278,69.886925 124.720299,69.819885 
	C144.698700,69.730782 164.678101,69.725311 184.656418,69.822296 
	C196.046173,69.877586 202.422699,76.076515 202.443878,87.402008 
	C202.536057,136.693634 202.541306,185.985611 202.447891,235.277222 
	C202.423859,247.953598 190.057556,259.631531 176.886673,259.692047 
	C156.571182,259.785431 136.255096,259.752319 115.479889,259.868011 
M112.793343,244.569153 
	C116.342453,246.040863 119.867302,248.713425 123.444687,248.785675 
	C143.753281,249.195923 164.074493,249.010284 184.391312,248.972931 
	C193.577423,248.956055 198.098953,244.402878 198.104309,235.090698 
	C198.132614,185.963837 198.137634,136.836929 198.100601,87.710068 
	C198.092957,77.566315 191.929672,72.650208 181.931595,74.590523 
	C179.896347,81.730011 178.329590,82.885216 170.584976,82.891258 
	C159.760406,82.899704 148.935837,82.896439 138.111267,82.892670 
	C129.764969,82.889771 128.620667,82.071213 126.014214,74.280334 
	C115.045860,73.290123 110.017548,77.761116 110.015144,88.588242 
	C110.004364,137.215530 109.968010,185.842941 110.107964,234.469833 
	C110.117104,237.642990 111.525124,240.812119 112.793343,244.569153 
z"/>
<path fill="#F2F5E5" opacity="1.000000" stroke="none" 
	d="
M657.113586,230.676514 
	C657.006714,228.548370 656.899841,226.420227 656.791687,224.265488 
	C697.570312,219.185898 723.316833,197.864899 731.681396,156.720505 
	C731.982483,217.661087 731.979919,278.902954 731.954407,340.617798 
	C730.827942,340.994202 729.724426,340.897644 728.302795,340.380127 
	C727.658447,335.502594 727.438110,331.035278 726.987793,326.591309 
	C724.905151,306.035980 717.853455,287.690369 703.083557,272.605164 
	C706.521606,271.223114 709.800598,270.224152 712.998718,269.012115 
	C714.066101,268.607605 714.926758,267.657745 715.881897,266.957214 
	C714.799377,266.249847 713.508362,264.747467 712.668945,264.967499 
	C708.106323,266.163818 703.655090,267.785065 698.966431,268.970795 
	C684.966858,255.921021 668.791992,245.762863 657.113586,230.676514 
z"/>
<path fill="#ACC9F9" opacity="1.000000" stroke="none" 
	d="
M98.252853,348.381134 
	C115.568886,348.797394 129.274429,355.576233 136.333389,372.055145 
	C138.558395,377.249420 138.849640,383.272003 140.061554,389.328613 
	C127.639336,389.823456 115.180847,389.855835 102.724068,390.018921 
	C99.292793,390.063873 97.970955,388.585815 98.003281,385.233398 
	C98.120232,373.105255 98.116951,360.975983 98.252853,348.381134 
z"/>
<path fill="#F1F4E5" opacity="1.000000" stroke="none" 
	d="
M731.890442,136.074615 
	C730.941406,132.251419 730.218445,127.812065 728.789185,123.613106 
	C718.882935,94.508369 699.060913,76.367172 668.835144,69.890305 
	C667.213745,69.542862 665.583130,69.238327 663.554688,68.858253 
	C664.626953,68.631218 666.101135,68.313004 667.575867,68.310486 
	C686.873291,68.277527 706.171692,68.388428 725.467712,68.219322 
	C730.241455,68.177490 732.256653,69.460747 732.165588,74.695221 
	C731.812683,94.982750 731.879333,115.277565 731.890442,136.074615 
z"/>
<path fill="#3E4652" opacity="1.000000" stroke="none" 
	d="
M236.105774,212.704193 
	C234.958221,211.158966 234.019211,209.933594 233.027130,208.752838 
	C232.383759,207.987137 231.143158,207.300766 231.122757,206.552887 
	C231.102325,205.803452 232.172607,204.908463 232.934891,204.285294 
	C233.735809,203.630524 234.869217,203.364349 235.620773,202.671707 
	C236.624146,201.746964 237.399475,200.574799 238.272736,199.508896 
	C239.142899,200.860092 240.013077,202.211273 240.254059,202.585464 
	C242.329468,204.339691 243.630112,205.439041 244.930740,206.538406 
	C243.591812,207.618561 242.252899,208.698700 240.031723,210.490555 
	C239.773453,211.299454 240.466614,214.945206 236.105774,212.704193 
z"/>
<path fill="#EAF4E3" opacity="1.000000" stroke="none" 
	d="
M220.926285,104.841728 
	C223.349319,102.578545 225.406143,100.401558 227.761368,98.618813 
	C228.637390,97.955734 230.211914,98.215477 231.467911,98.054398 
	C231.256149,99.201859 231.425095,100.685860 230.762802,101.435074 
	C228.583420,103.900520 226.199600,106.215240 223.676956,108.328362 
	C222.952774,108.934975 221.493454,108.663971 220.371201,108.795364 
	C220.473663,107.558395 220.576111,106.321426 220.926285,104.841728 
z"/>
<path fill="#EBF4E4" opacity="1.000000" stroke="none" 
	d="
M236.834717,162.048920 
	C235.660706,162.882217 233.968155,164.138107 233.309235,163.729065 
	C230.212540,161.806564 227.327591,159.511703 224.541016,157.144958 
	C223.918518,156.616241 223.996902,155.262329 223.752594,154.288345 
	C224.886108,154.148407 226.406357,153.470139 227.087723,153.959595 
	C230.444702,156.371231 233.579285,159.092468 236.834717,162.048920 
z"/>
<path fill="#E5F2E2" opacity="1.000000" stroke="none" 
	d="
M241.533325,129.328033 
	C240.949951,130.718277 240.298325,132.512924 239.428345,132.625885 
	C236.160675,133.050186 232.815659,133.059204 229.514191,132.907104 
	C228.752792,132.872025 228.049255,131.580811 227.319092,130.867645 
	C227.949631,130.239349 228.557800,129.095535 229.214386,129.067047 
	C233.258453,128.891586 237.313431,128.967804 241.533325,129.328033 
z"/>
<path fill="#ACC9F9" opacity="1.000000" stroke="none" 
	d="
M98.625565,247.381607 
	C98.958473,247.689331 99.123695,248.242371 99.312271,249.078094 
	C99.182716,249.477676 99.029823,249.594589 98.611671,249.817871 
	C98.383568,249.158478 98.420723,248.392700 98.625565,247.381607 
z"/>
<path fill="#F2F5E5" opacity="1.000000" stroke="none" 
	d="
M652.587830,294.306793 
	C652.587830,324.442535 652.587830,354.578247 652.587830,385.123901 
	C546.542542,385.123901 441.010529,385.123901 335.202209,385.123901 
	C335.202209,331.537537 335.202209,277.957367 335.202209,224.090302 
	C440.854492,224.090302 546.396790,224.090302 652.471069,224.090302 
	C652.471069,244.186462 652.471069,263.966583 652.169800,284.004272 
	C649.236023,279.850952 646.807800,275.301086 643.924377,271.060791 
	C639.263550,264.206909 634.745605,257.172974 629.335999,250.936264 
	C624.634033,245.515457 618.029419,242.754395 610.643005,242.836624 
	C609.510864,242.849228 608.392578,244.102371 607.267822,244.781738 
	C608.216797,245.518021 609.133911,246.846817 610.119629,246.899826 
	C621.121521,247.491257 628.206299,254.071991 633.646057,262.638306 
	C640.237488,273.018250 646.297729,283.735504 652.587830,294.306793 
M497.989532,288.157715 
	C486.993805,288.148712 475.993225,288.327209 465.004730,288.040344 
	C460.476257,287.922150 459.329163,289.621063 459.395905,293.866882 
	C459.607941,307.358582 459.473572,320.855774 459.473145,334.350830 
	C459.472992,338.803558 459.473145,343.256256 459.473145,347.936188 
	C455.392151,347.936188 451.858093,347.936188 447.974701,347.936188 
	C447.974701,346.298279 447.974701,344.993408 447.974701,343.688568 
	C447.974609,322.862854 447.853394,302.035858 448.070923,281.212402 
	C448.117584,276.744690 446.710663,275.388000 442.358734,275.605560 
	C435.877319,275.929565 429.354736,275.939911 422.874603,275.603363 
	C418.464325,275.374329 417.130707,276.860291 417.173065,281.254578 
	C417.370758,301.745148 417.260559,322.238739 417.260437,342.731232 
	C417.260437,344.483215 417.260406,346.235229 417.260406,348.275543 
	C412.841217,348.275543 409.180969,348.113342 405.550934,348.373322 
	C404.447388,348.452393 403.427246,349.696320 402.368927,350.406769 
	C403.351318,351.191254 404.228241,352.253052 405.347137,352.678467 
	C406.366547,353.066040 407.648529,352.764099 408.814758,352.764313 
	C425.470673,352.767181 442.126648,352.751953 458.782532,352.776154 
	C491.097321,352.823059 523.412109,352.895203 555.726868,352.949890 
	C564.025940,352.963959 572.325012,352.951996 580.415955,352.951996 
	C581.902588,349.190613 580.702759,348.167755 577.536255,348.234894 
	C571.290710,348.367340 565.040344,348.273956 558.583252,348.273956 
	C558.583252,345.419586 558.583313,343.426453 558.583313,341.433350 
	C558.583069,315.442841 558.491028,289.451752 558.667786,263.462433 
	C558.699219,258.839050 557.593994,256.937195 552.564941,257.084167 
	C540.912476,257.424652 529.238831,257.377777 517.583069,257.099396 
	C513.042358,256.990936 511.553345,258.257080 511.593018,262.983215 
	C511.813873,289.305054 511.698792,315.629761 511.698547,341.953461 
	C511.698517,343.891235 511.698517,345.829010 511.698517,347.985840 
	C507.865967,347.985840 504.632996,347.985840 500.967834,347.985840 
	C500.967834,346.086731 500.967834,344.451538 500.967834,342.816315 
	C500.967682,326.488953 501.033752,310.160950 500.876129,293.835114 
	C500.858215,291.977905 499.584473,290.132782 497.989532,288.157715 
z"/>
<path fill="#F5DF49" opacity="1.000000" stroke="none" 
	d="
M478.000061,148.142853 
	C511.115448,148.142868 543.730835,148.142868 576.520630,148.142868 
	C579.282654,181.351562 595.516235,204.597092 626.352295,218.795731 
	C528.780151,218.795731 432.239929,218.795731 335.313873,218.795731 
	C335.313873,195.627472 335.313873,172.237854 335.313873,148.142838 
	C382.690796,148.142838 430.095428,148.142838 478.000061,148.142853 
M410.596252,175.746399 
	C403.645844,174.545258 398.478058,178.841400 399.568512,185.031326 
	C400.273529,189.033188 402.665741,191.596954 406.798737,192.111145 
	C411.124207,192.649292 414.431305,190.813690 415.814545,186.744019 
	C417.395721,182.091965 415.908875,178.277847 410.596252,175.746399 
M395.097443,183.550262 
	C393.905518,177.449432 389.936035,174.285461 384.917267,175.435913 
	C380.836304,176.371399 377.944611,180.029694 378.096375,184.065109 
	C378.258484,188.375595 381.670258,191.870224 386.002380,192.163116 
	C390.816162,192.488541 393.702332,190.010193 395.097443,183.550262 
M371.600647,177.978851 
	C365.913483,172.151184 357.813324,176.470078 357.028503,182.308685 
	C356.485382,186.349304 357.906921,189.550262 361.647736,191.339584 
	C365.111053,192.996185 368.553284,192.588257 371.269165,189.824020 
	C374.617432,186.416092 374.845978,182.540909 371.600647,177.978851 
z"/>
<path fill="#DF719E" opacity="1.000000" stroke="none" 
	d="
M589.759155,111.897980 
	C605.345337,84.097252 635.052429,68.837196 664.236023,73.402321 
	C696.335144,78.423523 720.007568,100.743042 726.495056,132.103195 
	C734.974182,173.090469 705.152954,214.108261 663.392639,218.843796 
	C661.458008,219.063156 659.476868,218.871918 656.797607,218.871918 
	C656.797607,216.709946 656.797668,214.772415 656.797668,212.834885 
	C656.797424,191.856262 656.697144,170.876801 656.876709,149.899719 
	C656.915161,145.410156 655.648438,143.795197 650.933777,143.845871 
	C629.791077,144.073196 608.644592,143.944336 587.499451,143.944016 
	C585.691223,143.943985 583.883057,143.944016 581.565308,143.944016 
	C581.499634,132.384201 584.584229,122.075615 589.759155,111.897980 
z"/>
<path fill="#A9C5FA" opacity="1.000000" stroke="none" 
	d="
M496.000000,102.939041 
	C519.975464,102.939041 543.450989,102.939041 567.378662,102.939041 
	C564.546509,109.048470 561.921326,114.843338 559.128113,120.556046 
	C558.809265,121.208153 557.580750,121.637505 556.718445,121.752411 
	C555.245117,121.948723 553.727661,121.817970 552.228760,121.817978 
	C473.450562,121.818611 394.672333,121.818146 315.894135,121.819176 
	C308.378204,121.819275 308.374786,121.823402 308.373444,129.546097 
	C308.370911,144.171646 308.372711,158.797180 308.372711,173.739960 
	C301.189941,173.739960 294.440826,173.739960 287.346252,173.739960 
	C287.346252,150.365707 287.346252,126.983337 287.346252,102.939049 
	C356.739960,102.939049 426.119965,102.939049 496.000000,102.939041 
z"/>
<path fill="#DE709D" opacity="1.000000" stroke="none" 
	d="
M330.259796,191.890289 
	C330.773499,195.980499 329.460663,197.564743 325.598541,197.271835 
	C321.653625,196.972641 317.668365,197.205597 313.333374,197.205597 
	C313.333374,173.377777 313.333374,150.019730 313.333374,126.382126 
	C394.618073,126.382126 475.646942,126.382126 557.107971,126.382126 
	C556.286194,132.254791 555.511597,137.790009 554.654968,143.911789 
	C552.442139,143.911789 550.323486,143.911789 548.204834,143.911789 
	C477.747864,143.911865 407.290863,143.910934 336.833893,143.913605 
	C330.280487,143.913864 330.267548,143.924438 330.263245,150.426880 
	C330.254272,164.085205 330.260315,177.743546 330.259796,191.890289 
z"/>
<path fill="#7FD5C2" opacity="1.000000" stroke="none" 
	d="
M702.892883,272.905090 
	C717.853455,287.690369 724.905151,306.035980 726.987793,326.591309 
	C727.438110,331.035278 727.658447,335.502594 728.009277,340.400452 
	C704.991516,354.721619 681.950378,368.603394 658.896667,382.464264 
	C658.519531,382.691010 657.988525,382.661591 656.875183,382.880066 
	C656.875183,354.792358 656.875183,326.958893 657.252930,298.801636 
	C664.832458,302.945160 672.159302,302.404083 678.600159,297.549988 
	C683.294312,294.012299 686.967163,289.124573 691.121948,284.864655 
	C695.027405,280.860413 698.967834,276.890228 702.892883,272.905090 
M692.861389,331.311188 
	C693.671753,330.533417 694.460449,329.731201 695.298950,328.985077 
	C696.058472,328.309296 696.872498,327.694702 697.662476,327.053162 
	C696.895874,326.217743 696.121033,325.389679 695.364868,324.544922 
	C694.509888,323.589874 693.721069,322.569794 692.810303,321.672485 
	C692.101196,320.973846 691.307556,320.066223 690.440979,319.923737 
	C689.843140,319.825439 689.013184,320.827301 688.363831,321.421509 
	C687.214111,322.473541 686.096619,323.564362 685.018616,324.689789 
	C684.501709,325.229401 683.875977,325.826508 683.704285,326.500671 
	C683.372864,327.802277 690.349243,334.004211 691.668640,333.571991 
	C692.150391,333.414185 692.422241,332.615387 692.861389,331.311188 
z"/>
<path fill="#F1F4E4" opacity="1.000000" stroke="none" 
	d="
M587.398315,175.479614 
	C583.802368,166.813446 581.551025,158.240982 581.433716,148.727753 
	C604.937134,148.727753 628.150330,148.727753 651.738770,148.727753 
	C651.738770,171.998901 651.738770,195.340698 651.738770,218.677979 
	C628.679871,221.333038 599.723694,201.970535 587.398315,175.479614 
z"/>
<path fill="#EEF1E2" opacity="1.000000" stroke="none" 
	d="
M312.945038,297.000000 
	C312.945038,295.500763 312.945038,294.501495 312.945038,293.502258 
	C312.945038,261.148529 312.943848,261.147858 328.920868,233.542999 
	C329.204529,233.052841 329.630249,232.644882 330.386749,231.705551 
	C330.386749,275.915039 330.386749,319.420563 330.386749,363.175873 
	C324.627197,363.175873 319.166718,363.175873 312.945038,363.175873 
	C312.945038,341.301056 312.945038,319.400543 312.945038,297.000000 
z"/>
<path fill="#7FD6C2" opacity="1.000000" stroke="none" 
	d="
M657.012756,231.166046 
	C668.791992,245.762863 684.966858,255.921021 698.764038,269.234039 
	C695.289551,273.568146 691.811584,277.343536 688.349182,281.133087 
	C684.776550,285.043274 681.588928,289.405914 677.574951,292.790283 
	C670.117615,299.077850 662.569458,298.219116 656.779419,291.116760 
	C656.823608,271.296356 656.867737,251.475967 657.012756,231.166046 
z"/>
<path fill="#F0DB49" opacity="1.000000" stroke="none" 
	d="
M720.845764,385.571350 
	C701.633667,385.571228 682.902588,385.571228 664.171509,385.571228 
	C664.089417,385.218872 664.007324,384.866547 663.925293,384.514191 
	C684.936768,371.912476 705.948242,359.310760 727.593506,346.328918 
	C727.593506,359.726349 727.593506,372.268158 727.593506,385.571472 
	C725.531250,385.571472 723.429016,385.571472 720.845764,385.571350 
z"/>
<path fill="#7ED2BF" opacity="1.000000" stroke="none" 
	d="
M330.469910,384.833527 
	C311.129669,384.988342 297.876251,374.450623 287.060272,359.874329 
	C282.320435,353.486664 277.823975,346.918396 273.039185,340.128235 
	C275.822174,333.956207 278.782990,328.088043 281.743805,322.219849 
	C282.104767,322.319641 282.465729,322.419434 282.826691,322.519196 
	C282.826691,328.255646 282.970673,333.997040 282.772797,339.726624 
	C282.653656,343.176941 283.910919,344.558167 287.384308,344.446777 
	C292.545471,344.281250 297.731293,344.654175 302.877930,344.335022 
	C307.275299,344.062347 309.337372,345.202484 308.841980,350.060242 
	C308.421478,354.183838 308.951447,358.396271 308.701294,362.547729 
	C308.468079,366.418213 309.845856,368.003845 313.816010,367.832947 
	C319.121216,367.604584 324.443634,367.776459 330.588593,367.776459 
	C330.588593,373.549469 330.588593,378.953308 330.469910,384.833527 
z"/>
<path fill="#F0F3E3" opacity="1.000000" stroke="none" 
	d="
M300.910156,178.262604 
	C303.222748,178.293701 305.050995,178.306702 306.877197,178.373993 
	C307.175507,178.384979 307.464996,178.635574 308.740875,179.243408 
	C308.740875,187.021194 308.740845,195.276932 308.740875,203.532654 
	C308.740906,210.183121 308.609802,216.837387 308.801636,223.482330 
	C308.885956,226.403473 308.097809,228.002258 305.111511,228.863083 
	C299.251282,230.552353 293.502686,232.628967 287.285431,234.684982 
	C287.285431,215.772446 287.285431,197.412506 287.285431,178.262604 
	C291.604309,178.262604 296.014709,178.262604 300.910156,178.262604 
z"/>
<path fill="#EEF1E2" opacity="1.000000" stroke="none" 
	d="
M296.528442,294.522278 
	C300.416870,287.250793 304.104889,280.290497 307.792908,273.330170 
	C308.025482,273.431976 308.258026,273.533752 308.490601,273.635559 
	C308.490601,295.618591 308.490601,317.601624 308.490601,339.852600 
	C301.337860,339.852600 294.440186,339.852600 287.552673,339.852600 
	C285.543671,323.810211 286.213593,308.397797 296.528442,294.522278 
z"/>
<path fill="#5666E4" opacity="1.000000" stroke="none" 
	d="
M656.509521,290.927979 
	C662.569458,298.219116 670.117615,299.077850 677.574951,292.790283 
	C681.588928,289.405914 684.776550,285.043274 688.349182,281.133087 
	C691.811584,277.343536 695.289551,273.568146 698.963074,269.523254 
	C703.655090,267.785065 708.106323,266.163818 712.668945,264.967499 
	C713.508362,264.747467 714.799377,266.249847 715.881897,266.957214 
	C714.926758,267.657745 714.066101,268.607605 712.998718,269.012115 
	C709.800598,270.224152 706.521606,271.223114 703.083557,272.605164 
	C698.967834,276.890228 695.027405,280.860413 691.121948,284.864655 
	C686.967163,289.124573 683.294312,294.012299 678.600159,297.549988 
	C672.159302,302.404083 664.832458,302.945160 657.299866,298.348694 
	C655.687500,297.061737 654.405945,295.903839 652.856079,294.526367 
	C646.297729,283.735504 640.237488,273.018250 633.646057,262.638306 
	C628.206299,254.071991 621.121521,247.491257 610.119629,246.899826 
	C609.133911,246.846817 608.216797,245.518021 607.267822,244.781738 
	C608.392578,244.102371 609.510864,242.849228 610.643005,242.836624 
	C618.029419,242.754395 624.634033,245.515457 629.335999,250.936264 
	C634.745605,257.172974 639.263550,264.206909 643.924377,271.060791 
	C646.807800,275.301086 649.236023,279.850952 652.198730,284.520874 
	C653.765869,286.766266 655.002747,288.752716 656.509521,290.927979 
z"/>
<path fill="#F2F5E5" opacity="1.000000" stroke="none" 
	d="
M317.063354,201.591522 
	C321.531219,201.590698 325.506836,201.590698 330.264343,201.590698 
	C330.264343,207.371780 330.345825,212.941040 330.177277,218.502716 
	C330.151703,219.345490 329.125824,220.597336 328.286560,220.903732 
	C323.348022,222.706726 318.327667,224.285568 312.957458,226.064987 
	C312.957458,218.575775 313.089844,211.613586 312.895508,204.660553 
	C312.812042,201.674026 314.334839,201.398712 317.063354,201.591522 
z"/>
<path fill="#4C4E59" opacity="1.000000" stroke="none" 
	d="
M157.096069,329.424896 
	C158.115860,328.095612 159.123978,327.161743 159.540726,326.775696 
	C162.024704,329.349060 163.683304,331.067352 166.252228,333.728699 
	C165.543884,334.393890 164.173752,335.680603 162.803619,336.967285 
	C162.781311,336.910950 162.759018,336.854584 162.736710,336.798248 
	C161.513107,338.133392 160.289505,339.468567 159.065903,340.803711 
	C158.158157,339.523682 157.250412,338.243652 156.104446,336.627716 
	C155.189972,335.984039 153.774078,334.987427 152.358185,333.990784 
	C153.773056,333.059845 155.220917,332.173340 156.578690,331.165436 
	C156.901978,330.925446 156.923889,330.279541 157.096069,329.424896 
z"/>
<path fill="#AAC6FC" opacity="1.000000" stroke="none" 
	d="
M112.537895,244.276138 
	C111.525124,240.812119 110.117104,237.642990 110.107964,234.469833 
	C109.968010,185.842941 110.004364,137.215530 110.015144,88.588242 
	C110.017548,77.761116 115.045860,73.290123 126.014214,74.280334 
	C128.620667,82.071213 129.764969,82.889771 138.111267,82.892670 
	C148.935837,82.896439 159.760406,82.899704 170.584976,82.891258 
	C178.329590,82.885216 179.896347,81.730011 181.931595,74.590523 
	C191.929672,72.650208 198.092957,77.566315 198.100601,87.710068 
	C198.137634,136.836929 198.132614,185.963837 198.104309,235.090698 
	C198.098953,244.402878 193.577423,248.956055 184.391312,248.972931 
	C164.074493,249.010284 143.753281,249.195923 123.444687,248.785675 
	C119.867302,248.713425 116.342453,246.040863 112.537895,244.276138 
M187.612381,183.074966 
	C194.490799,174.214508 195.049179,163.978165 193.310577,153.595337 
	C190.664444,137.792816 179.032410,128.265594 162.993225,128.088760 
	C157.335770,128.026382 151.676971,128.056778 146.018951,128.080505 
	C131.126556,128.142944 119.839348,136.096802 115.678528,149.435745 
	C110.909065,164.725891 115.461243,181.800201 127.324379,189.235016 
	C132.054779,192.199615 133.792999,195.283813 133.083069,200.389587 
	C132.946869,201.369034 132.886978,202.424698 133.104843,203.373322 
	C133.487305,205.038803 134.111679,206.648743 134.634720,208.281937 
	C136.082962,207.338318 138.168716,206.732864 138.877365,205.396927 
	C143.975800,195.785461 152.134857,193.374374 162.163086,194.890518 
	C162.813202,194.988815 163.494751,194.930481 164.157623,194.885315 
	C173.352036,194.259079 181.271973,191.010818 187.612381,183.074966 
z"/>
<path fill="#484955" opacity="1.000000" stroke="none" 
	d="
M498.441284,288.219910 
	C499.584473,290.132782 500.858215,291.977905 500.876129,293.835114 
	C501.033752,310.160950 500.967682,326.488953 500.967834,342.816315 
	C500.967834,344.451538 500.967834,346.086731 500.967834,347.985840 
	C504.632996,347.985840 507.865967,347.985840 511.698517,347.985840 
	C511.698517,345.829010 511.698517,343.891235 511.698547,341.953461 
	C511.698792,315.629761 511.813873,289.305054 511.593018,262.983215 
	C511.553345,258.257080 513.042358,256.990936 517.583069,257.099396 
	C529.238831,257.377777 540.912476,257.424652 552.564941,257.084167 
	C557.593994,256.937195 558.699219,258.839050 558.667786,263.462433 
	C558.491028,289.451752 558.583069,315.442841 558.583313,341.433350 
	C558.583313,343.426453 558.583252,345.419586 558.583252,348.273956 
	C565.040344,348.273956 571.290710,348.367340 577.536255,348.234894 
	C580.702759,348.167755 581.902588,349.190613 580.415955,352.951996 
	C572.325012,352.951996 564.025940,352.963959 555.726868,352.949890 
	C523.412109,352.895203 491.097321,352.823059 458.782532,352.776154 
	C442.126648,352.751953 425.470673,352.767181 408.814758,352.764313 
	C407.648529,352.764099 406.366547,353.066040 405.347137,352.678467 
	C404.228241,352.253052 403.351318,351.191254 402.368896,350.406738 
	C403.427246,349.696320 404.447388,348.452393 405.550934,348.373322 
	C409.180969,348.113342 412.841217,348.275543 417.260406,348.275543 
	C417.260406,346.235229 417.260437,344.483215 417.260437,342.731232 
	C417.260559,322.238739 417.370758,301.745148 417.173065,281.254578 
	C417.130707,276.860291 418.464325,275.374329 422.874603,275.603363 
	C429.354736,275.939911 435.877319,275.929565 442.358734,275.605560 
	C446.710663,275.388000 448.117584,276.744690 448.070923,281.212402 
	C447.853394,302.035858 447.974609,322.862854 447.974701,343.688568 
	C447.974701,344.993408 447.974701,346.298279 447.974701,347.936188 
	C451.858093,347.936188 455.392151,347.936188 459.473145,347.936188 
	C459.473145,343.256256 459.472992,338.803558 459.473145,334.350830 
	C459.473572,320.855774 459.607941,307.358582 459.395905,293.866882 
	C459.329163,289.621063 460.476257,287.922150 465.004730,288.040344 
	C475.993225,288.327209 486.993805,288.148712 498.441284,288.219910 
M516.906982,347.746277 
	C529.144104,347.746277 541.381287,347.746277 553.699768,347.746277 
	C553.699768,318.937225 553.699768,290.591736 553.699768,262.052887 
	C541.075195,262.052887 528.852661,262.052887 516.649902,262.052887 
	C516.390869,262.813934 516.098694,263.271057 516.099304,263.727814 
	C516.137512,291.508331 516.199707,319.288818 516.906982,347.746277 
M496.572571,321.500183 
	C496.570221,313.356812 496.701416,305.209198 496.442505,297.073975 
	C496.395905,295.609894 494.780975,292.978729 493.825012,292.948547 
	C484.079041,292.640930 474.319519,292.760468 464.350403,292.760468 
	C464.350403,311.461517 464.350403,329.592010 464.350403,347.676392 
	C475.194183,347.676392 485.592590,347.676392 496.573517,347.676392 
	C496.573517,339.051971 496.573517,330.776093 496.572571,321.500183 
M443.628510,294.501801 
	C443.628510,289.762207 443.628510,285.022614 443.628510,280.227142 
	C435.975525,280.227142 429.060028,280.227142 421.951538,280.227142 
	C421.951538,302.853180 421.951538,325.212463 421.951538,347.714752 
	C429.260406,347.714752 436.300751,347.714752 443.628601,347.714752 
	C443.628601,330.082336 443.628601,312.792145 443.628510,294.501801 
z"/>
<path fill="#434448" opacity="1.000000" stroke="none" 
	d="
M410.957092,175.863953 
	C415.908875,178.277847 417.395721,182.091965 415.814545,186.744019 
	C414.431305,190.813690 411.124207,192.649292 406.798737,192.111145 
	C402.665741,191.596954 400.273529,189.033188 399.568512,185.031326 
	C398.478058,178.841400 403.645844,174.545258 410.957092,175.863953 
M405.959259,180.139435 
	C405.323181,181.848862 404.208984,183.567764 404.242584,185.263901 
	C404.260773,186.181137 406.540497,188.001709 407.272583,187.767334 
	C409.019562,187.208115 411.504486,185.896637 411.807526,184.484680 
	C412.572083,180.921951 410.276886,179.422211 405.959259,180.139435 
z"/>
<path fill="#434448" opacity="1.000000" stroke="none" 
	d="
M395.091980,183.956360 
	C393.702332,190.010193 390.816162,192.488541 386.002380,192.163116 
	C381.670258,191.870224 378.258484,188.375595 378.096375,184.065109 
	C377.944611,180.029694 380.836304,176.371399 384.917267,175.435913 
	C389.936035,174.285461 393.905518,177.449432 395.091980,183.956360 
M388.762390,187.466629 
	C391.660461,183.858887 391.300568,180.570236 387.756775,179.968292 
	C386.397949,179.737503 384.431549,180.386856 383.470306,181.356888 
	C382.687042,182.147308 382.343384,184.700684 382.941193,185.262009 
	C384.274872,186.514221 386.318817,187.009979 388.762390,187.466629 
z"/>
<path fill="#434348" opacity="1.000000" stroke="none" 
	d="
M371.844238,178.273285 
	C374.845978,182.540909 374.617432,186.416092 371.269165,189.824020 
	C368.553284,192.588257 365.111053,192.996185 361.647736,191.339584 
	C357.906921,189.550262 356.485382,186.349304 357.028503,182.308685 
	C357.813324,176.470078 365.913483,172.151184 371.844238,178.273285 
M369.170624,182.100006 
	C367.373688,181.393814 365.563141,180.155380 363.785431,180.200836 
	C362.865173,180.224365 361.316559,182.518219 361.306641,183.796066 
	C361.296631,185.088699 362.546234,186.897568 363.754547,187.591660 
	C366.595245,189.223465 368.843964,187.205460 369.170624,182.100006 
z"/>
<path fill="#3F4A55" opacity="1.000000" stroke="none" 
	d="
M692.825623,331.710083 
	C692.422241,332.615387 692.150391,333.414185 691.668640,333.571991 
	C690.349243,334.004211 683.372864,327.802277 683.704285,326.500671 
	C683.875977,325.826508 684.501709,325.229401 685.018616,324.689789 
	C686.096619,323.564362 687.214111,322.473541 688.363831,321.421509 
	C689.013184,320.827301 689.843140,319.825439 690.440979,319.923737 
	C691.307556,320.066223 692.101196,320.973846 692.810303,321.672485 
	C693.721069,322.569794 694.509888,323.589874 695.364868,324.544922 
	C696.121033,325.389679 696.895874,326.217743 697.662476,327.053162 
	C696.872498,327.694702 696.058472,328.309296 695.298950,328.985077 
	C694.460449,329.731201 693.671753,330.533417 692.825623,331.710083 
z"/>
<path fill="#F1F4E5" opacity="1.000000" stroke="none" 
	d="
M187.400558,183.366333 
	C181.271973,191.010818 173.352036,194.259079 164.157623,194.885315 
	C163.494751,194.930481 162.813202,194.988815 162.163086,194.890518 
	C152.134857,193.374374 143.975800,195.785461 138.877365,205.396927 
	C138.168716,206.732864 136.082962,207.338318 134.634720,208.281937 
	C134.111679,206.648743 133.487305,205.038803 133.104843,203.373322 
	C132.886978,202.424698 132.946869,201.369034 133.083069,200.389587 
	C133.792999,195.283813 132.054779,192.199615 127.324379,189.235016 
	C115.461243,181.800201 110.909065,164.725891 115.678528,149.435745 
	C119.839348,136.096802 131.126556,128.142944 146.018951,128.080505 
	C151.676971,128.056778 157.335770,128.026382 162.993225,128.088760 
	C179.032410,128.265594 190.664444,137.792816 193.310577,153.595337 
	C195.049179,163.978165 194.490799,174.214508 187.400558,183.366333 
M132.072693,167.203751 
	C132.684448,168.741699 133.179321,170.339142 133.926819,171.808029 
	C139.048050,181.871643 150.718170,186.572632 161.434219,182.942535 
	C172.041214,179.349380 178.588486,168.129883 176.386871,157.319473 
	C173.816376,144.697754 162.323868,136.831650 149.765121,139.098068 
	C137.401810,141.329224 129.808640,152.962509 132.072693,167.203751 
z"/>
<path fill="#E0719E" opacity="1.000000" stroke="none" 
	d="
M516.583313,347.407776 
	C516.199707,319.288818 516.137512,291.508331 516.099304,263.727814 
	C516.098694,263.271057 516.390869,262.813934 516.649902,262.052887 
	C528.852661,262.052887 541.075195,262.052887 553.699768,262.052887 
	C553.699768,290.591736 553.699768,318.937225 553.699768,347.746277 
	C541.381287,347.746277 529.144104,347.746277 516.583313,347.407776 
z"/>
<path fill="#7ED4C1" opacity="1.000000" stroke="none" 
	d="
M496.573059,322.000183 
	C496.573517,330.776093 496.573517,339.051971 496.573517,347.676392 
	C485.592590,347.676392 475.194183,347.676392 464.350403,347.676392 
	C464.350403,329.592010 464.350403,311.461517 464.350403,292.760468 
	C474.319519,292.760468 484.079041,292.640930 493.825012,292.948547 
	C494.780975,292.978729 496.395905,295.609894 496.442505,297.073975 
	C496.701416,305.209198 496.570221,313.356812 496.573059,322.000183 
z"/>
<path fill="#F0F3E3" opacity="1.000000" stroke="none" 
	d="
M443.628540,295.001892 
	C443.628601,312.792145 443.628601,330.082336 443.628601,347.714752 
	C436.300751,347.714752 429.260406,347.714752 421.951538,347.714752 
	C421.951538,325.212463 421.951538,302.853180 421.951538,280.227142 
	C429.060028,280.227142 435.975525,280.227142 443.628510,280.227142 
	C443.628510,285.022614 443.628510,289.762207 443.628540,295.001892 
z"/>
<path fill="#EFDA49" opacity="1.000000" stroke="none" 
	d="
M406.354614,180.008148 
	C410.276886,179.422211 412.572083,180.921951 411.807526,184.484680 
	C411.504486,185.896637 409.019562,187.208115 407.272583,187.767334 
	C406.540497,188.001709 404.260773,186.181137 404.242584,185.263901 
	C404.208984,183.567764 405.323181,181.848862 406.354614,180.008148 
z"/>
<path fill="#EBD649" opacity="1.000000" stroke="none" 
	d="
M388.417877,187.640289 
	C386.318817,187.009979 384.274872,186.514221 382.941193,185.262009 
	C382.343384,184.700684 382.687042,182.147308 383.470306,181.356888 
	C384.431549,180.386856 386.397949,179.737503 387.756775,179.968292 
	C391.300568,180.570236 391.660461,183.858887 388.417877,187.640289 
z"/>
<path fill="#EBD649" opacity="1.000000" stroke="none" 
	d="
M369.313873,182.452362 
	C368.843964,187.205460 366.595245,189.223465 363.754547,187.591660 
	C362.546234,186.897568 361.296631,185.088699 361.306641,183.796066 
	C361.316559,182.518219 362.865173,180.224365 363.785431,180.200836 
	C365.563141,180.155380 367.373688,181.393814 369.313873,182.452362 
z"/>
<path fill="#43444D" opacity="1.000000" stroke="none" 
	d="
M132.007904,166.803223 
	C129.808640,152.962509 137.401810,141.329224 149.765121,139.098068 
	C162.323868,136.831650 173.816376,144.697754 176.386871,157.319473 
	C178.588486,168.129883 172.041214,179.349380 161.434219,182.942535 
	C150.718170,186.572632 139.048050,181.871643 133.926819,171.808029 
	C133.179321,170.339142 132.684448,168.741699 132.007904,166.803223 
M151.920685,179.858643 
	C163.979370,180.114639 172.740082,172.215668 172.556870,161.252304 
	C172.381165,150.738083 163.427200,142.428055 152.943710,143.049622 
	C144.190704,143.568588 136.800659,150.509399 135.887894,159.068604 
	C134.791641,169.348373 140.171143,176.661789 151.920685,179.858643 
z"/>
<path fill="#F1DC49" opacity="1.000000" stroke="none" 
	d="
M151.508667,179.801727 
	C140.171143,176.661789 134.791641,169.348373 135.887894,159.068604 
	C136.800659,150.509399 144.190704,143.568588 152.943710,143.049622 
	C163.427200,142.428055 172.381165,150.738083 172.556870,161.252304 
	C172.740082,172.215668 163.979370,180.114639 151.508667,179.801727 
M146.129242,163.241882 
	C145.490036,167.169708 148.125763,170.301315 152.619156,170.952774 
	C156.729080,171.548645 162.232391,168.458862 162.522278,165.283020 
	C162.583923,164.607407 162.009003,163.281387 161.701065,163.273438 
	C160.705627,163.247742 159.313995,163.367188 158.757584,164.016037 
	C155.260742,168.093811 152.155304,167.630478 148.994446,163.651062 
	C148.594437,163.147476 147.548813,163.156693 146.129242,163.241882 
z"/>
<path fill="#434348" opacity="1.000000" stroke="none" 
	d="
M146.465775,163.085114 
	C147.548813,163.156693 148.594437,163.147476 148.994446,163.651062 
	C152.155304,167.630478 155.260742,168.093811 158.757584,164.016037 
	C159.313995,163.367188 160.705627,163.247742 161.701065,163.273438 
	C162.009003,163.281387 162.583923,164.607407 162.522278,165.283020 
	C162.232391,168.458862 156.729080,171.548645 152.619156,170.952774 
	C148.125763,170.301315 145.490036,167.169708 146.465775,163.085114 
z"/>
</svg>