<?xml version="1.0" standalone="no"?>
<!DOCTYPE svg PUBLIC "-//W3C//DTD SVG 20010904//EN"
 "http://www.w3.org/TR/2001/REC-SVG-20010904/DTD/svg10.dtd">
<svg version="1.0" xmlns="http://www.w3.org/2000/svg"
 width="1200.000000pt" height="800.000000pt" viewBox="0 0 1200.000000 800.000000"
 preserveAspectRatio="xMidYMid meet">

<g transform="translate(0.000000,800.000000) scale(0.100000,-0.100000)"
fill="#000000" stroke="none">
<path d="M0 7622 l0 -378 66 4 c44 3 83 -1 119 -13 71 -22 168 -22 230 0 46
16 120 17 885 21 882 3 1245 10 1332 24 29 4 56 6 61 3 4 -2 22 0 40 6 17 6
46 12 62 14 46 5 70 18 53 28 -11 7 -10 11 2 20 12 8 9 9 -10 4 -14 -4 -30
-13 -36 -21 -14 -17 -25 -18 -22 -1 4 15 -83 17 -94 2 -5 -6 -11 -5 -17 4 -5
7 -13 11 -19 7 -6 -3 -12 0 -14 6 -4 10 -76 14 -314 15 -472 4 -659 5 -670 2
-5 -2 -19 2 -30 9 -12 6 -24 9 -27 6 -10 -11 -280 -12 -372 -2 -49 5 -104 11
-121 12 -17 2 -37 6 -43 11 -7 4 -23 2 -36 -5 -14 -7 -31 -9 -42 -5 -10 5 -22
7 -27 6 -5 -1 -33 8 -62 19 -41 17 -57 19 -73 10 -18 -9 -21 -8 -21 12 -1 20
-2 21 -11 6 -16 -29 -49 -22 -62 12 -10 28 -15 30 -59 30 -36 0 -48 4 -48 15
0 8 -4 15 -10 15 -5 0 -10 -7 -10 -15 0 -8 -7 -15 -15 -15 -8 0 -15 6 -15 13
0 8 -14 11 -45 9 -50 -4 -58 -25 -12 -30 15 -2 27 -6 27 -10 0 -11 -62 -48
-94 -56 -24 -6 -33 -3 -53 20 -27 31 -29 44 -8 44 8 0 15 5 15 10 0 6 -4 10
-8 10 -5 0 -16 18 -26 41 -17 38 -17 41 0 60 9 10 25 19 34 19 9 0 26 14 38
30 13 17 18 30 12 30 -18 0 -11 29 10 40 14 8 20 8 20 0 0 -7 10 -5 28 3 15 8
47 18 72 23 64 11 940 11 940 0 0 -6 5 -5 12 2 15 15 108 16 108 2 0 -7 7 -7
21 0 13 7 41 9 77 4 59 -8 88 -10 134 -13 15 0 33 -8 42 -16 8 -8 25 -19 38
-24 31 -11 567 -3 683 11 50 6 170 10 269 10 178 -1 179 -1 230 28 35 19 73
30 120 35 101 10 125 23 41 21 -38 -1 -76 -5 -82 -9 -8 -5 -13 -4 -13 2 0 6
-9 11 -21 11 -11 0 -18 -3 -16 -7 3 -5 -20 -7 -51 -5 -32 2 -103 5 -160 8 -76
4 -116 1 -156 -10 -70 -21 -91 -20 -180 4 -59 16 -105 20 -223 19 -176 0 -238
11 -274 52 -26 30 -118 62 -146 52 -7 -3 -19 -1 -26 5 -14 11 -4 10 -187 16
-80 2 -146 5 -147 6 -3 2 -102 2 -105 0 -2 0 -25 -3 -51 -5 -42 -4 -50 -2 -54
15 -7 25 -19 26 -32 3 -8 -15 -23 -17 -103 -14 -197 6 -254 6 -286 0 -24 -5
-35 -3 -42 10 -8 14 -11 14 -19 1 -9 -12 -12 -12 -28 1 -44 37 -66 39 -483 39
l-410 0 0 -378z"/>
<path d="M6288 7926 c-13 -7 -41 -10 -63 -9 -38 4 -39 3 -20 -12 19 -15 19
-15 -10 -9 -16 4 -32 11 -35 15 -3 4 -11 5 -18 0 -7 -4 1 -12 24 -20 22 -8 34
-18 30 -26 -3 -9 2 -11 15 -8 10 3 19 10 19 15 0 6 6 5 15 -2 9 -7 22 -9 32
-4 10 4 23 8 28 9 31 4 55 19 55 35 0 22 -41 32 -72 16z"/>
<path d="M6582 7922 c-28 -22 -29 -37 -4 -135 18 -71 32 -106 32 -80 0 5 9 20
19 32 28 33 39 143 17 176 -19 29 -33 31 -64 7z"/>
<path d="M6423 7923 c9 -2 23 -2 30 0 6 3 -1 5 -18 5 -16 0 -22 -2 -12 -5z"/>
<path d="M5840 7900 c0 -5 5 -10 11 -10 5 0 7 5 4 10 -3 6 -8 10 -11 10 -2 0
-4 -4 -4 -10z"/>
<path d="M6025 7900 c-29 -7 -28 -8 10 -8 22 0 51 4 65 8 23 7 22 8 -10 8 -19
0 -48 -4 -65 -8z"/>
<path d="M5650 7883 c0 -5 -24 -8 -54 -9 -30 0 -75 -9 -101 -18 -32 -13 -57
-16 -83 -11 -62 12 -217 14 -422 5 -107 -5 -307 -12 -445 -15 -137 -4 -252 -8
-255 -10 -22 -14 -152 -19 -406 -17 -160 2 -309 -1 -332 -6 -22 -5 -59 -6 -81
-2 -73 13 -53 -3 31 -25 46 -12 112 -30 148 -40 52 -14 85 -16 164 -11 67 4
103 3 112 -5 8 -7 29 -9 51 -5 57 9 203 7 223 -4 13 -7 19 -6 23 4 4 11 16 11
54 4 30 -6 128 -6 263 0 118 5 218 6 222 3 4 -3 100 -2 214 3 156 6 213 6 227
-3 14 -9 22 -9 32 -1 8 7 19 9 26 5 24 -15 207 -4 288 17 31 8 46 8 48 1 4
-12 53 -5 53 8 0 5 7 9 16 9 10 0 14 6 11 15 -8 20 8 28 22 11 9 -11 9 -15 -1
-19 -7 -3 3 -6 22 -6 22 0 30 2 22 8 -10 6 -10 10 3 21 9 8 15 29 15 56 l0 44
-55 0 c-30 0 -55 -3 -55 -7z m-23 -119 c-3 -3 -12 -4 -19 -1 -8 3 -5 6 6 6 11
1 17 -2 13 -5z"/>
<path d="M5783 7874 c-8 -21 13 -42 28 -27 13 13 5 43 -11 43 -6 0 -13 -7 -17
-16z"/>
<path d="M6095 7880 c-8 -13 15 -13 35 0 12 8 11 10 -7 10 -12 0 -25 -4 -28
-10z"/>
<path d="M5840 7860 c0 -5 16 -10 36 -10 21 0 33 4 29 10 -3 6 -19 10 -36 10
-16 0 -29 -4 -29 -10z"/>
<path d="M6158 7863 c7 -3 16 -2 19 1 4 3 -2 6 -13 5 -11 0 -14 -3 -6 -6z"/>
<path d="M6093 7853 c9 -2 23 -2 30 0 6 3 -1 5 -18 5 -16 0 -22 -2 -12 -5z"/>
<path d="M3778 7703 c7 -3 16 -2 19 1 4 3 -2 6 -13 5 -11 0 -14 -3 -6 -6z"/>
<path d="M465 7530 c-3 -5 -1 -10 4 -10 6 0 11 5 11 10 0 6 -2 10 -4 10 -3 0
-8 -4 -11 -10z"/>
<path d="M508 7523 c7 -3 16 -2 19 1 4 3 -2 6 -13 5 -11 0 -14 -3 -6 -6z"/>
<path d="M4670 7340 c0 -6 7 -10 15 -10 8 0 15 2 15 4 0 2 -7 6 -15 10 -8 3
-15 1 -15 -4z"/>
<path d="M4848 7313 c6 -2 18 -2 25 0 6 3 1 5 -13 5 -14 0 -19 -2 -12 -5z"/>
<path d="M4930 7316 c0 -2 7 -6 15 -10 8 -3 15 -1 15 4 0 6 -7 10 -15 10 -8 0
-15 -2 -15 -4z"/>
<path d="M4974 7309 c-3 -5 6 -9 20 -9 31 0 34 6 6 13 -11 3 -23 1 -26 -4z"/>
<path d="M5040 7300 c0 -5 10 -10 23 -10 18 0 19 2 7 10 -19 13 -30 13 -30 0z"/>
<path d="M5140 7290 c0 -5 7 -10 16 -10 8 0 12 5 9 10 -3 6 -10 10 -16 10 -5
0 -9 -4 -9 -10z"/>
<path d="M3310 7275 c0 -2 28 -20 63 -41 34 -21 72 -44 85 -53 23 -14 24 -13
20 14 -3 26 -10 31 -85 56 -46 15 -83 26 -83 24z"/>
<path d="M5243 7273 c9 -2 23 -2 30 0 6 3 -1 5 -18 5 -16 0 -22 -2 -12 -5z"/>
<path d="M5448 7253 c6 -2 18 -2 25 0 6 3 1 5 -13 5 -14 0 -19 -2 -12 -5z"/>
<path d="M5500 7256 c0 -2 7 -7 16 -10 8 -3 12 -2 9 4 -6 10 -25 14 -25 6z"/>
<path d="M5665 7250 c-16 -7 -17 -9 -3 -9 9 -1 20 4 23 9 7 11 7 11 -20 0z"/>
<path d="M0 4253 c0 -2547 2 -2873 15 -2873 8 0 15 7 15 15 0 18 12 19 27 4 9
-9 24 -9 59 0 26 7 65 9 86 6 27 -5 38 -3 38 6 0 7 3 9 8 5 4 -4 7 -13 7 -19
0 -16 50 -15 51 1 3 26 6 26 15 3 7 -18 14 -22 34 -17 18 5 25 2 25 -9 0 -8 7
-15 15 -15 8 0 15 -7 15 -15 0 -9 10 -20 23 -25 19 -8 20 -9 3 -9 -20 -1 -13
-16 7 -16 7 -1 11 -6 10 -13 -2 -7 4 -12 12 -12 31 0 45 -94 26 -170 -5 -19
-12 -59 -15 -88 -4 -29 -7 -56 -8 -60 -1 -4 2 -38 7 -76 8 -76 30 -115 96
-179 41 -40 64 -81 53 -98 -3 -5 -7 -142 -9 -304 l-4 -295 207 0 c182 0 215 3
272 21 107 34 355 90 500 114 47 7 74 16 72 23 -1 7 2 12 8 12 5 0 10 -4 10
-10 0 -5 10 -10 23 -10 17 0 19 2 7 10 -12 8 -12 10 4 16 11 4 21 2 27 -7 8
-12 10 -12 19 1 7 12 13 13 28 3 14 -8 23 -8 30 -1 6 6 33 12 61 14 67 5 75 7
83 18 4 6 31 5 70 -1 68 -13 190 -8 220 8 10 6 86 9 176 7 132 -2 165 0 207
16 28 10 75 24 105 32 30 8 57 20 61 26 4 6 19 12 35 14 30 3 67 41 59 62 -2
6 0 12 6 12 6 0 7 5 4 10 -4 6 7 25 24 42 25 26 31 28 31 14 0 -15 3 -16 15
-6 8 7 15 19 15 26 0 18 26 18 33 0 4 -9 17 -12 41 -9 23 2 36 -1 36 -8 0 -8
24 -10 89 -5 68 6 91 4 102 -6 9 -8 33 -13 62 -12 30 1 53 -4 62 -13 12 -11
55 -14 219 -15 112 0 213 3 223 6 23 6 245 25 384 31 102 5 177 14 329 38 41
6 81 10 88 8 8 -1 12 5 10 15 -3 15 -62 59 -108 81 -8 3 -64 36 -125 72 -60
36 -114 66 -120 68 -12 2 -190 62 -220 73 -54 20 -217 70 -230 70 -8 0 -15 5
-15 11 0 5 -4 7 -10 4 -5 -3 -42 8 -82 24 -66 28 -74 29 -95 16 -12 -8 -31
-15 -43 -15 -11 0 -20 -4 -20 -8 0 -4 -42 -14 -92 -21 -51 -7 -117 -17 -146
-23 -116 -21 -490 -6 -543 23 -10 5 -26 9 -37 9 -10 0 -39 11 -63 25 -24 14
-51 28 -59 32 -23 11 -64 56 -77 86 -7 15 -19 30 -27 33 -12 5 -14 18 -9 62 9
83 7 113 -8 123 -7 4 -11 11 -7 14 17 17 -48 168 -68 157 -3 -2 -9 0 -12 4 -4
4 -1 4 6 0 7 -4 12 -1 12 7 0 24 -39 28 -51 6 -10 -20 -8 -94 4 -106 11 -11 8
-23 -7 -23 -19 0 -25 -72 -19 -201 6 -115 -15 -242 -43 -253 -8 -3 -14 -15
-14 -26 0 -11 -4 -20 -8 -20 -5 0 -14 -10 -21 -23 -7 -13 -28 -29 -47 -36 -19
-7 -32 -16 -29 -21 10 -15 -66 -50 -123 -56 -57 -6 -133 -34 -162 -59 -24 -21
-101 -45 -147 -45 -23 0 -43 -4 -45 -9 -3 -8 -36 -12 -188 -24 -28 -2 -331 13
-370 19 -80 11 -108 17 -135 29 -16 7 -47 16 -68 20 -20 4 -40 11 -43 16 -3 5
-16 9 -30 9 -13 0 -29 9 -36 20 -7 11 -19 20 -27 20 -25 0 -98 68 -104 97 -3
15 -11 42 -18 58 -7 17 -14 49 -14 73 -1 23 -7 59 -13 80 -6 20 -16 63 -23 95
-7 31 -15 57 -19 57 -13 0 -52 130 -46 155 4 14 0 37 -7 53 -8 15 -12 32 -10
38 6 17 -50 54 -80 54 -14 0 -33 7 -42 16 -12 12 -26 15 -55 10 -22 -3 -41 -2
-45 4 -8 13 -45 13 -45 0 0 -5 5 -10 10 -10 6 0 10 -7 10 -15 0 -8 -4 -15 -8
-15 -10 0 -52 56 -52 70 0 5 -9 10 -19 10 -11 0 -22 4 -25 9 -3 5 -15 7 -25 4
-13 -3 -23 2 -30 16 -7 12 -18 21 -25 21 -23 0 -27 38 -5 45 10 4 19 11 19 16
0 6 13 9 30 7 18 -1 34 3 42 13 14 17 99 39 149 39 17 0 39 5 50 10 13 8 19 7
19 0 0 -6 4 -9 9 -5 5 3 36 8 68 10 32 3 76 8 98 12 68 10 87 13 175 23 118
12 187 28 305 69 33 11 74 21 90 21 17 1 48 7 69 15 36 12 41 12 52 -3 13 -16
13 -16 14 0 0 15 4 16 26 8 37 -15 54 -12 55 8 0 12 3 10 10 -7 5 -13 7 -32 4
-42 -4 -13 -1 -19 9 -19 8 0 20 -16 26 -35 12 -38 51 -65 93 -65 12 0 28 -5
34 -11 7 -7 13 -8 17 0 4 6 20 8 38 4 22 -4 33 -2 40 10 5 10 16 17 23 17 8 0
14 6 12 13 -1 6 5 11 15 9 9 -1 26 11 38 28 12 16 17 30 12 30 -5 0 -14 18
-21 40 -6 22 -16 40 -20 40 -19 0 -8 48 13 57 38 17 130 46 156 49 14 1 75 10
135 19 61 9 155 18 210 20 59 1 118 9 143 18 23 9 48 14 56 11 7 -3 19 2 26
11 14 17 11 25 -55 195 -24 60 -41 123 -46 170 -4 41 -11 92 -14 112 -11 56
27 90 127 113 66 16 85 17 132 6 63 -14 139 -50 180 -86 35 -30 42 -31 97 -5
32 14 66 20 126 20 l82 0 5 33 c8 58 25 151 40 222 9 39 27 248 41 465 14 217
34 526 45 685 11 160 29 427 40 595 11 168 27 404 35 525 9 121 15 236 13 255
-2 37 -31 87 -110 186 -57 73 -67 108 -43 157 19 41 28 45 110 48 66 3 75 9
75 56 0 42 -19 91 -29 75 -5 -9 -28 2 -80 38 -40 27 -76 50 -81 50 -4 0 -23
17 -42 38 -19 20 -41 38 -49 40 -8 2 -32 23 -54 48 -22 24 -45 44 -50 44 -25
0 -227 226 -264 296 -43 80 -18 184 52 221 42 22 183 29 256 13 83 -18 121
-39 351 -188 30 -20 61 -40 67 -45 9 -6 22 1 43 23 16 18 30 36 30 40 0 5 -24
12 -54 15 l-55 7 6 67 6 67 -32 13 c-17 7 -37 11 -46 7 -8 -3 -25 5 -39 19
-14 14 -34 25 -46 25 -11 0 -28 4 -38 9 -21 11 -136 47 -178 56 -41 8 -150
100 -194 164 -19 28 -54 76 -77 106 -23 31 -45 64 -48 74 -3 11 -15 21 -27 24
-21 6 -162 -1 -187 -9 -7 -2 -51 1 -97 7 -62 8 -106 8 -170 -1 -48 -6 -132
-10 -188 -9 -205 5 -303 2 -383 -10 -86 -13 -117 -12 -463 9 -160 10 -218 10
-263 1 -32 -7 -146 -14 -252 -17 -163 -4 -202 -2 -242 11 -42 14 -58 15 -124
4 -62 -10 -88 -10 -140 1 -35 7 -97 14 -136 14 l-73 1 0 -2872z m3397 2381
c-3 -3 -12 -4 -19 -1 -8 3 -5 6 6 6 11 1 17 -2 13 -5z m-517 -6250 c0 -8 -5
-12 -10 -9 -6 4 -8 11 -5 16 9 14 15 11 15 -7z"/>
<path d="M6005 6954 c7 -21 18 -40 25 -42 17 -6 3 36 -20 61 -18 18 -18 18 -5
-19z"/>
<path d="M4913 5573 c9 -2 25 -2 35 0 9 3 1 5 -18 5 -19 0 -27 -2 -17 -5z"/>
<path d="M4993 5563 c9 -2 23 -2 30 0 6 3 -1 5 -18 5 -16 0 -22 -2 -12 -5z"/>
<path d="M5048 5563 c7 -3 16 -2 19 1 4 3 -2 6 -13 5 -11 0 -14 -3 -6 -6z"/>
<path d="M5128 5553 c7 -3 16 -2 19 1 4 3 -2 6 -13 5 -11 0 -14 -3 -6 -6z"/>
<path d="M5167 5553 c13 -9 182 -18 173 -10 -3 3 -45 8 -95 11 -50 4 -84 3
-78 -1z"/>
<path d="M4843 5253 c9 -2 23 -2 30 0 6 3 -1 5 -18 5 -16 0 -22 -2 -12 -5z"/>
<path d="M4958 5243 c12 -2 30 -2 40 0 9 3 -1 5 -23 4 -22 0 -30 -2 -17 -4z"/>
<path d="M4978 4923 c12 -2 32 -2 45 0 12 2 2 4 -23 4 -25 0 -35 -2 -22 -4z"/>
<path d="M5138 4913 c12 -2 32 -2 45 0 12 2 2 4 -23 4 -25 0 -35 -2 -22 -4z"/>
<path d="M5238 4903 c12 -2 30 -2 40 0 9 3 -1 5 -23 4 -22 0 -30 -2 -17 -4z"/>
<path d="M4878 4613 c12 -2 32 -2 45 0 12 2 2 4 -23 4 -25 0 -35 -2 -22 -4z"/>
<path d="M4983 4603 c9 -2 23 -2 30 0 6 3 -1 5 -18 5 -16 0 -22 -2 -12 -5z"/>
<path d="M4893 4293 c15 -2 37 -2 50 0 12 2 0 4 -28 4 -27 0 -38 -2 -22 -4z"/>
<path d="M5097 4283 c18 -2 50 -2 70 0 21 2 7 4 -32 4 -38 0 -55 -2 -38 -4z"/>
<path d="M5880 4150 c0 -5 5 -10 10 -10 6 0 10 5 10 10 0 6 -4 10 -10 10 -5 0
-10 -4 -10 -10z"/>
<path d="M5886 4107 c-13 -10 -17 -24 -14 -60 l3 -48 60 -26 c87 -37 96 -40
140 -54 22 -7 45 -16 50 -20 14 -10 98 -33 111 -31 6 1 17 -5 24 -13 13 -16
60 -21 60 -7 0 4 -6 14 -12 20 -10 10 -10 17 -1 31 16 26 6 32 -35 25 -30 -6
-34 -4 -29 10 5 12 1 16 -18 16 -38 0 -71 17 -106 52 -20 21 -33 29 -36 20 -7
-18 -23 -4 -23 19 0 16 -7 19 -50 19 -48 0 -50 1 -44 25 5 22 3 24 -20 19 -14
-2 -26 0 -26 6 0 14 -13 13 -34 -3z"/>
<path d="M4788 3983 c6 -2 18 -2 25 0 6 3 1 5 -13 5 -14 0 -19 -2 -12 -5z"/>
<path d="M4933 3973 c9 -2 25 -2 35 0 9 3 1 5 -18 5 -19 0 -27 -2 -17 -5z"/>
<path d="M9171 3936 c-18 -22 -51 -61 -72 -86 -22 -25 -58 -76 -81 -115 -23
-38 -47 -76 -54 -83 -7 -6 -15 -22 -19 -35 -19 -73 -29 -108 -45 -157 -10 -30
-28 -107 -41 -170 -23 -118 -21 -170 6 -170 8 0 24 -9 35 -20 16 -16 28 -19
58 -14 32 5 55 -3 169 -60 73 -36 134 -66 136 -66 10 0 235 -125 252 -140 22
-20 334 -184 555 -291 80 -39 300 -148 490 -243 190 -94 415 -204 500 -245
212 -101 268 -129 628 -313 l312 -160 0 285 0 284 -24 13 c-14 7 -32 10 -40 7
-9 -4 -16 -1 -16 6 -1 14 -81 57 -107 57 -10 0 -23 8 -29 18 -7 10 -31 24 -54
31 -24 7 -55 22 -70 33 -15 10 -42 20 -60 22 -19 1 -36 8 -38 15 -3 8 -9 7
-19 -6 -10 -13 -16 -15 -19 -5 -3 6 -11 12 -19 12 -7 0 -18 7 -25 15 -19 23
-74 46 -111 47 -19 1 -37 6 -41 12 -5 8 -13 8 -26 -1 -16 -10 -21 -8 -32 12
-9 17 -25 25 -56 30 -24 3 -46 10 -49 16 -4 5 -19 9 -35 9 -19 0 -33 7 -40 20
-6 11 -20 20 -30 20 -11 0 -20 4 -20 10 0 5 -18 13 -40 16 -22 4 -38 10 -35
13 2 4 -12 6 -31 5 -34 -3 -47 12 -19 23 26 9 45 56 33 78 -32 61 -83 60 -146
0 -53 -51 -78 -56 -92 -20 -9 24 -35 31 -92 26 -10 -1 -28 5 -40 13 -12 9 -33
16 -45 16 -12 0 -32 11 -45 24 -25 26 -87 50 -109 41 -8 -3 -32 4 -54 15 -21
11 -47 20 -57 20 -10 0 -40 11 -66 24 -26 13 -63 27 -82 31 -19 4 -40 12 -47
17 -7 5 -17 7 -23 3 -6 -3 -26 3 -45 15 -19 12 -39 18 -45 15 -6 -4 -30 2 -54
13 -23 11 -58 23 -78 27 -19 4 -48 18 -63 31 -17 14 -36 22 -46 19 -9 -3 -20
-2 -23 4 -3 5 -24 12 -45 16 -22 4 -50 16 -63 26 -12 11 -35 23 -50 26 -16 3
-28 11 -28 18 0 13 -28 28 -85 46 -22 6 -60 22 -85 35 -25 13 -50 24 -56 24
-6 0 -17 7 -24 15 -7 8 -25 15 -41 15 -16 0 -29 4 -29 9 0 5 -19 11 -42 15
-68 10 -121 37 -150 74 -28 36 -29 46 -14 207 7 75 70 231 114 284 7 9 27 32
43 51 30 35 73 109 67 115 -2 1 -18 -16 -37 -39z"/>
<path d="M6366 3841 c-4 -5 3 -7 14 -4 23 6 26 13 6 13 -8 0 -17 -4 -20 -9z"/>
<path d="M6380 3821 c0 -5 5 -13 10 -16 6 -3 10 -2 10 4 0 5 -4 13 -10 16 -5
3 -10 2 -10 -4z"/>
<path d="M4978 3653 c7 -3 16 -2 19 1 4 3 -2 6 -13 5 -11 0 -14 -3 -6 -6z"/>
<path d="M5038 3653 c6 -2 18 -2 25 0 6 3 1 5 -13 5 -14 0 -19 -2 -12 -5z"/>
<path d="M4798 3033 c12 -2 30 -2 40 0 9 3 -1 5 -23 4 -22 0 -30 -2 -17 -4z"/>
<path d="M4940 3030 c58 -11 177 -12 183 -2 3 4 -47 8 -111 9 -88 1 -106 -1
-72 -7z"/>
<path d="M4543 2733 c9 -2 23 -2 30 0 6 3 -1 5 -18 5 -16 0 -22 -2 -12 -5z"/>
<path d="M4680 2719 c47 -4 110 -7 140 -7 l55 1 -55 7 c-30 5 -93 8 -140 7
l-85 0 85 -8z"/>
<path d="M4328 2433 c6 -2 18 -2 25 0 6 3 1 5 -13 5 -14 0 -19 -2 -12 -5z"/>
<path d="M4958 2403 c7 -3 16 -2 19 1 4 3 -2 6 -13 5 -11 0 -14 -3 -6 -6z"/>
<path d="M3439 1303 c0 -5 -2 -16 -4 -26 -2 -9 0 -15 5 -12 4 3 13 -2 20 -10
7 -8 19 -15 26 -15 16 0 18 -11 5 -25 -15 -16 21 -60 49 -60 14 0 24 -5 23
-12 -2 -7 9 -15 25 -18 15 -3 39 -10 55 -14 18 -6 27 -6 27 1 0 6 8 4 18 -4
19 -17 72 -30 72 -18 0 5 18 0 39 -11 22 -10 47 -16 57 -12 13 5 15 2 9 -15
-7 -25 5 -28 35 -9 17 10 22 9 29 -2 9 -14 41 -9 41 7 0 5 -15 15 -32 22 -18
7 -55 28 -83 46 -38 25 -75 38 -155 54 -120 23 -180 47 -180 72 0 15 4 16 25
8 29 -11 33 1 9 25 -15 15 -18 14 -40 -6 -21 -19 -24 -20 -30 -5 -3 9 -16 16
-28 17 -18 1 -16 3 9 14 l30 14 -27 1 c-16 0 -28 -3 -29 -7z"/>
<path d="M0 1265 c0 -8 7 -15 15 -15 8 0 15 -4 15 -10 0 -5 -7 -10 -15 -10
-17 0 -21 -45 -5 -55 5 -3 7 0 5 7 -4 9 10 18 40 27 46 13 65 36 21 25 -13 -3
-27 -1 -30 5 -4 6 -2 11 5 11 8 0 8 4 -1 15 -7 8 -21 15 -31 15 -11 0 -19 -7
-19 -15z"/>
<path d="M3997 1033 c-15 -14 -6 -33 17 -33 15 0 26 -7 29 -19 3 -12 13 -19
25 -18 16 1 18 5 11 18 -7 14 -5 16 14 12 15 -4 11 2 -16 21 -37 25 -67 33
-80 19z"/>
<path d="M9500 989 c0 -6 -6 -9 -14 -6 -10 4 -15 -7 -19 -41 -8 -72 -4 -107
13 -107 8 0 16 -5 17 -10 1 -6 -4 -9 -11 -7 -22 4 -36 -48 -35 -133 0 -44 -2
-109 -5 -145 -3 -36 -7 -120 -9 -187 -3 -121 -3 -122 22 -135 47 -25 156 -131
183 -180 l22 -38 487 0 487 0 5 26 c10 54 -6 71 -65 66 -10 -1 -18 4 -18 12 0
8 -7 16 -15 20 -8 3 -15 12 -15 21 0 12 -14 15 -67 15 -64 1 -66 2 -43 15 l25
14 -25 9 -25 10 25 10 c14 5 34 12 45 15 21 5 14 6 -55 10 -21 2 -25 7 -26 36
0 19 -5 36 -12 39 -7 2 -10 7 -7 12 3 4 -6 11 -20 14 -18 5 -25 13 -25 31 0
14 5 25 11 25 5 0 7 4 4 10 -3 6 -22 10 -41 10 -19 0 -34 -4 -34 -10 0 -5 6
-10 14 -10 8 0 16 -16 20 -40 3 -22 11 -40 16 -40 6 0 10 -7 10 -15 0 -16 -44
-20 -87 -9 -25 7 -31 24 -9 24 8 0 17 8 19 17 4 17 5 17 6 1 1 -22 21 -24 21
-3 0 8 -4 15 -9 15 -5 0 -12 12 -14 28 l-4 27 -2 -27 c-1 -25 -5 -28 -35 -28
-19 0 -43 -3 -53 -7 -16 -6 -16 -5 -4 11 16 20 7 32 -29 39 -14 2 3 5 36 6 44
1 63 5 67 15 4 9 -2 17 -13 21 -27 8 -33 35 -13 51 16 12 16 15 3 24 -20 13
-47 13 -55 0 -5 -8 -11 -7 -21 1 -18 15 0 51 21 43 20 -8 19 3 -1 24 -15 14
-18 14 -28 0 -10 -14 -29 -15 -103 -9 -7 1 -13 8 -13 16 0 19 -26 20 -33 1 -4
-9 2 -17 14 -21 10 -4 19 -11 19 -17 0 -6 18 -9 45 -6 26 2 46 -1 49 -8 3 -7
-12 -9 -45 -6 -32 3 -49 1 -49 -6 0 -6 -7 -9 -15 -6 -8 4 -12 10 -9 16 7 12
-25 48 -43 48 -7 0 -13 5 -13 10 0 6 11 10 24 10 13 0 26 7 30 15 3 8 14 15
25 15 14 0 19 5 14 16 -4 11 -9 12 -16 5 -6 -6 -19 -11 -30 -11 -10 0 -25 -7
-33 -15 -9 -8 -21 -15 -27 -14 -9 0 -8 2 1 6 19 8 14 23 -9 23 -11 0 -27 6
-34 14 -12 12 -12 15 0 19 7 3 19 -1 25 -9 16 -18 30 -18 30 0 0 8 6 17 13 20
6 3 0 3 -15 0 -16 -4 -28 -2 -28 4 0 17 29 35 50 29 26 -7 26 -1 -1 14 -17 9
-23 8 -30 -2 -7 -11 -12 -12 -29 -1 -13 8 -20 9 -20 1 0 -6 -6 -17 -14 -24
-12 -12 -15 -12 -20 0 -8 21 -43 19 -55 -2 -8 -14 -10 -8 -11 30 0 48 -13 64
-23 27 -3 -11 -10 -20 -16 -20 -6 0 -8 6 -5 14 3 8 -2 29 -11 46 -9 18 -15 43
-12 56 3 19 1 22 -8 14 -7 -6 -11 -19 -8 -28 4 -18 -31 -42 -62 -42 -7 0 -15
-5 -17 -12 -3 -8 -9 -8 -24 0 -10 6 -14 12 -7 12 13 0 63 43 63 53 0 4 -10 11
-21 18 -16 8 -23 8 -29 -1 -5 -8 -9 -7 -14 5 -5 15 -1 16 31 11 37 -6 37 -6
13 8 -14 8 -41 16 -60 17 -31 4 -35 1 -34 -19 1 -30 -14 -28 -26 4 -16 41 -12
64 10 64 13 0 20 7 20 20 0 11 -4 20 -10 20 -5 0 -10 -5 -10 -11z m-14 -266
c-10 -10 -19 5 -10 18 6 11 8 11 12 0 2 -7 1 -15 -2 -18z m194 12 c0 -8 -9
-15 -20 -15 -11 0 -20 7 -20 15 0 8 9 15 20 15 11 0 20 -7 20 -15z m80 -85 c0
-5 -9 -10 -21 -10 -11 0 -17 5 -14 10 3 6 13 10 21 10 8 0 14 -4 14 -10z m-3
-36 c-3 -3 -12 -4 -19 -1 -8 3 -5 6 6 6 11 1 17 -2 13 -5z m123 -33 c0 -5 15
-12 33 -15 24 -4 33 -11 33 -26 0 -11 -6 -22 -13 -24 -7 -3 -13 1 -13 9 0 8
-9 15 -20 15 -11 0 -20 7 -20 15 0 8 -9 15 -20 15 -11 0 -20 5 -20 10 0 6 9
10 20 10 11 0 20 -4 20 -9z m24 -132 c-8 -13 -24 -1 -24 18 0 13 3 13 15 3 8
-7 12 -16 9 -21z m256 16 c0 -8 -4 -15 -9 -15 -13 0 -22 16 -14 24 11 11 23 6
23 -9z m-80 -50 c0 -9 -6 -12 -15 -9 -8 4 -12 10 -9 15 8 14 24 10 24 -6z m65
5 c3 -5 -3 -10 -14 -10 -12 0 -21 5 -21 10 0 6 6 10 14 10 8 0 18 -4 21 -10z
m215 -146 c0 -8 -4 -12 -10 -9 -5 3 -10 13 -10 21 0 8 5 12 10 9 6 -3 10 -13
10 -21z m184 -179 c-4 -8 -12 -15 -20 -15 -8 0 -14 7 -14 15 0 8 9 15 20 15
13 0 18 -5 14 -15z"/>
<path d="M4160 980 c0 -13 34 -30 61 -30 28 0 23 5 -24 25 -20 8 -37 11 -37 5z"/>
<path d="M9660 960 c-13 -8 -12 -10 3 -10 9 0 17 5 17 10 0 12 -1 12 -20 0z"/>
<path d="M4260 940 c0 -11 7 -20 15 -20 13 0 14 4 5 20 -6 11 -13 20 -15 20
-3 0 -5 -9 -5 -20z"/>
<path d="M9520 940 c0 -5 7 -10 15 -10 8 0 15 5 15 10 0 6 -7 10 -15 10 -8 0
-15 -4 -15 -10z"/>
<path d="M4307 933 c-13 -13 -7 -21 26 -34 63 -25 77 -28 70 -16 -3 7 5 1 19
-11 15 -13 34 -22 44 -20 32 6 -23 48 -63 48 -20 0 -41 8 -53 20 -21 21 -32
24 -43 13z"/>
<path d="M9665 910 c3 -5 8 -10 11 -10 2 0 4 5 4 10 0 6 -5 10 -11 10 -5 0 -7
-4 -4 -10z"/>
<path d="M4506 863 c-10 -10 -7 -23 6 -23 6 0 20 -7 30 -17 14 -13 18 -13 18
-2 -1 16 -45 51 -54 42z"/>
<path d="M9898 833 c6 -2 18 -2 25 0 6 3 1 5 -13 5 -14 0 -19 -2 -12 -5z"/>
<path d="M9776 805 c14 -10 15 -14 5 -15 -11 0 -12 -3 -4 -11 7 -7 20 -8 30
-5 17 7 16 9 -6 27 -13 10 -28 19 -34 19 -6 0 -2 -7 9 -15z"/>
<path d="M9900 807 c0 -19 10 -27 26 -20 11 4 11 7 -1 19 -17 18 -25 18 -25 1z"/>
<path d="M9856 800 c-19 -6 -19 -7 -1 -14 10 -3 22 -3 28 3 12 12 -4 20 -27
11z"/>
<path d="M4540 796 c0 -2 11 -6 25 -8 14 -3 25 -1 25 3 0 5 -11 9 -25 9 -14 0
-25 -2 -25 -4z"/>
<path d="M4660 755 c0 -8 5 -15 10 -15 6 0 10 7 10 15 0 8 -4 15 -10 15 -5 0
-10 -7 -10 -15z"/>
<path d="M4711 734 c0 -11 3 -14 6 -6 3 7 2 16 -1 19 -3 4 -6 -2 -5 -13z"/>
<path d="M10037 709 c3 -10 9 -16 14 -13 13 8 11 21 -5 27 -10 4 -12 0 -9 -14z"/>
<path d="M9936 658 c-18 -20 -18 -21 0 -13 11 4 27 7 37 7 15 -1 16 2 7 14
-16 19 -22 18 -44 -8z"/>
<path d="M10043 665 c-3 -9 -3 -18 -1 -21 3 -3 8 4 11 16 6 23 -1 27 -10 5z"/>
<path d="M10030 590 c0 -5 5 -10 10 -10 6 0 10 5 10 10 0 6 -4 10 -10 10 -5 0
-10 -4 -10 -10z"/>
<path d="M10260 569 c0 -5 5 -7 10 -4 6 3 10 8 10 11 0 2 -4 4 -10 4 -5 0 -10
-5 -10 -11z"/>
<path d="M10234 485 c-30 -26 -28 -41 5 -30 12 3 21 15 21 25 0 10 8 21 18 23
14 4 14 5 1 6 -9 0 -29 -10 -45 -24z"/>
<path d="M3238 433 c7 -3 16 -2 19 1 4 3 -2 6 -13 5 -11 0 -14 -3 -6 -6z"/>
<path d="M10476 321 c-4 -5 3 -7 14 -4 23 6 26 13 6 13 -8 0 -17 -4 -20 -9z"/>
<path d="M10495 280 c-3 -5 3 -10 14 -10 12 0 21 5 21 10 0 6 -6 10 -14 10 -8
0 -18 -4 -21 -10z"/>
<path d="M10400 266 c0 -9 5 -16 10 -16 6 0 10 4 10 9 0 6 -4 13 -10 16 -5 3
-10 -1 -10 -9z"/>
<path d="M10540 170 c0 -5 5 -10 10 -10 6 0 10 5 10 10 0 6 -4 10 -10 10 -5 0
-10 -4 -10 -10z"/>
<path d="M10568 133 c7 -3 16 -2 19 1 4 3 -2 6 -13 5 -11 0 -14 -3 -6 -6z"/>
<path d="M10658 3 c7 -3 16 -2 19 1 4 3 -2 6 -13 5 -11 0 -14 -3 -6 -6z"/>
</g>
</svg>
