<?xml version="1.0" standalone="no"?>
<!DOCTYPE svg PUBLIC "-//W3C//DTD SVG 20010904//EN"
 "http://www.w3.org/TR/2001/REC-SVG-20010904/DTD/svg10.dtd">
<svg version="1.0" xmlns="http://www.w3.org/2000/svg"
 width="512.000000pt" height="512.000000pt" viewBox="0 0 512.000000 512.000000"
 preserveAspectRatio="xMidYMid meet">

<g transform="translate(0.000000,512.000000) scale(0.100000,-0.100000)"
fill="#000000" stroke="none">
<path d="M3143 4490 c-170 -31 -322 -146 -397 -303 -77 -161 -73 -291 14 -474
31 -67 36 -83 23 -83 -9 0 -58 -25 -110 -55 l-93 -54 -581 345 c-319 190 -587
348 -594 350 -13 5 -1174 -669 -1187 -690 -12 -18 -10 -2824 2 -2847 6 -10 20
-19 30 -19 11 0 271 147 577 327 307 179 563 326 569 326 6 0 269 -153 585
-341 316 -187 581 -344 590 -347 9 -3 246 131 598 340 l584 345 553 -320 c303
-176 556 -320 561 -320 6 0 17 8 26 18 16 17 17 131 17 1428 0 1113 -3 1414
-12 1427 -7 9 -266 163 -576 342 -382 221 -569 324 -582 320 -13 -4 -24 4 -41
32 -113 184 -346 290 -556 253z m209 -336 c78 -54 111 -170 75 -257 -28 -65
-121 -127 -192 -127 -71 0 -164 62 -192 127 -33 81 -4 198 62 249 46 34 80 44
148 41 44 -3 66 -10 99 -33z m948 -350 l530 -307 0 -1353 c0 -791 -4 -1354 -9
-1354 -5 0 -239 133 -520 296 l-511 296 0 60 c0 53 2 59 18 54 9 -4 205 -117
434 -252 229 -134 424 -244 431 -244 8 0 20 6 26 14 8 10 10 330 9 1196 l-3
1183 -461 270 -461 270 -6 66 c-4 36 -9 76 -13 89 -3 12 -3 22 0 22 4 0 245
-138 536 -306z m-2942 214 l-3 -82 -426 -251 c-235 -138 -449 -265 -478 -282
l-51 -32 0 -1165 c0 -1045 2 -1166 16 -1180 8 -9 18 -16 20 -16 9 0 71 34 486
266 230 129 423 234 428 234 7 0 10 -23 8 -60 l-3 -61 -525 -308 c-289 -169
-528 -306 -532 -304 -5 2 -8 611 -8 1353 l0 1350 23 14 c57 38 1033 606 1040
606 4 0 7 -37 5 -82z m633 -241 l544 -324 3 -93 3 -93 -23 15 c-13 8 -260 158
-550 333 l-528 320 0 82 c0 46 2 83 4 83 2 0 248 -145 547 -323z m-631 -896
l0 -959 -41 -24 c-23 -14 -64 -55 -93 -94 -86 -116 -122 -111 -170 24 -37 105
-53 131 -83 138 -35 9 -54 -4 -78 -54 -11 -23 -22 -41 -26 -42 -3 0 -15 33
-28 73 -54 171 -116 256 -193 264 -56 6 -91 -20 -123 -93 -13 -30 -29 -54 -34
-54 -8 0 -11 196 -11 633 l0 633 433 256 c237 141 435 257 440 257 4 1 7 -431
7 -958z m297 826 l42 -27 -24 -26 c-20 -21 -25 -38 -25 -76 0 -64 8 -79 92
-164 l69 -70 15 -98 c21 -140 39 -167 159 -236 80 -46 93 -79 51 -134 -77
-102 -75 -203 6 -276 37 -34 85 -39 128 -15 39 22 104 18 158 -9 26 -14 84
-62 130 -108 l82 -84 -2 -712 -3 -712 -154 91 -154 91 26 22 c56 45 71 143 41
259 -25 99 -62 155 -215 330 -41 47 -41 48 -23 68 41 45 10 155 -60 216 -43
38 -86 49 -121 31 -47 -25 -164 -169 -203 -250 -20 -43 -40 -78 -43 -78 -4 0
-35 32 -69 71 -35 38 -76 77 -91 85 l-29 15 0 964 0 965 88 -53 c48 -30 106
-66 129 -80z m2357 -7 l197 -115 -61 -19 c-57 -19 -62 -19 -108 -3 -62 22
-100 21 -140 -3 -35 -21 -71 -86 -73 -130 0 -14 -6 -43 -14 -65 -11 -35 -13
-12 -14 208 -1 137 3 247 8 245 4 -1 97 -55 205 -118z m-304 -266 l0 -256 -93
-96 c-119 -123 -130 -143 -135 -259 l-4 -92 -37 20 c-19 10 -41 19 -48 19 -21
0 -73 -52 -115 -114 -50 -74 -109 -138 -165 -177 -47 -33 -74 -36 -94 -13 -20
24 -65 44 -99 44 -42 0 -77 -20 -130 -74 -50 -52 -89 -60 -141 -29 l-29 17 2
375 3 374 155 98 c85 54 160 97 166 96 6 -1 59 -65 117 -142 120 -160 152
-195 173 -195 20 0 48 31 154 171 103 135 234 332 282 424 18 36 34 65 36 65
1 0 2 -115 2 -256z m-1538 -42 l357 -216 3 -332 3 -332 -65 62 c-79 76 -141
107 -223 113 -49 4 -70 0 -100 -15 l-38 -20 -19 21 c-34 35 -26 90 21 161 36
53 40 66 36 103 -6 59 -45 105 -127 153 -39 23 -77 51 -85 63 -7 12 -17 54
-21 92 -11 108 -27 141 -110 227 -56 58 -75 83 -72 100 3 25 45 51 67 42 8 -2
176 -102 373 -222z m692 129 c20 -32 36 -63 36 -68 0 -4 -28 -26 -62 -47 -35
-22 -98 -61 -140 -88 l-78 -48 0 89 0 90 95 57 c53 31 98 61 101 65 8 14 9 13
48 -50z m1471 -32 c47 -8 90 -27 176 -78 l114 -66 3 -493 c2 -389 0 -492 -10
-494 -7 -1 -65 -2 -129 -2 l-115 -1 -61 -37 c-84 -52 -125 -51 -289 7 -70 25
-151 48 -180 51 l-54 7 0 385 0 385 48 76 c54 85 68 117 77 180 9 70 21 84 63
78 21 -3 55 -11 77 -18 36 -10 49 -9 105 9 77 24 93 25 175 11z m-636 -1138
c-24 -8 -92 -77 -149 -150 -63 -81 -74 -90 -161 -132 -68 -32 -96 -66 -105
-126 -5 -34 -18 -58 -50 -94 -68 -76 -77 -101 -71 -183 9 -115 35 -289 47
-320 6 -16 7 -33 3 -37 -9 -8 -584 -349 -589 -349 -2 0 -4 306 -4 681 0 645 1
681 18 674 77 -30 131 -17 201 49 71 67 83 71 118 42 68 -56 108 -59 179 -15
70 44 148 122 205 207 27 39 53 72 58 72 4 0 23 -7 41 -16 40 -21 74 -11 104
29 17 23 21 45 23 113 3 100 15 129 87 202 l51 53 3 -348 c2 -256 -1 -349 -9
-352z m307 -112 c95 -37 119 -43 190 -43 76 -1 84 1 135 34 l54 35 120 0 120
0 0 -572 c0 -315 -3 -572 -6 -570 -3 1 -189 109 -413 240 l-406 239 0 345 0
346 48 -6 c26 -3 97 -25 158 -48z m-296 -312 l0 -323 -206 -122 c-114 -67
-208 -121 -210 -119 -3 3 -19 105 -43 270 -11 82 -6 98 54 167 35 40 55 74 60
98 11 67 16 74 72 98 75 34 112 63 168 137 48 62 96 117 102 117 2 0 3 -145 3
-323z m-3038 176 c23 -27 45 -74 79 -171 41 -115 64 -158 95 -178 35 -23 70
-6 93 46 l18 40 27 -67 c28 -72 46 -98 86 -126 56 -39 137 -7 207 83 25 33 50
57 54 54 5 -3 6 1 3 9 -3 8 -1 18 5 22 8 4 11 -27 11 -98 l0 -104 -407 -228
c-225 -126 -418 -235 -430 -243 l-23 -14 0 421 c0 357 2 421 14 421 26 0 74
50 97 100 24 53 45 63 71 33z m1276 -136 c12 -13 26 -37 32 -54 10 -28 8 -34
-15 -57 -42 -42 -26 -78 86 -202 84 -93 131 -163 150 -225 19 -61 25 -164 11
-185 -4 -7 -25 -17 -48 -24 l-41 -12 -341 203 -342 202 0 99 c0 65 4 97 10 93
6 -4 7 -11 4 -17 -4 -7 -2 -8 4 -4 6 4 28 -16 52 -48 37 -49 89 -86 120 -86
38 0 71 34 109 113 38 79 153 226 177 227 6 0 20 -10 32 -23z m44 -780 l543
-322 3 -64 c2 -38 -1 -62 -7 -60 -5 2 -253 148 -550 324 l-540 320 -1 63 c0
34 2 62 4 62 3 0 249 -145 548 -323z m1716 251 l-3 -63 -535 -317 c-294 -174
-539 -317 -543 -318 -4 0 -7 28 -5 62 l3 62 535 317 c294 175 539 318 543 318
4 1 7 -27 5 -61z"/>
<path d="M647 3086 c-31 -33 -59 -125 -51 -165 8 -39 82 -123 128 -145 40 -19
89 -21 115 -5 14 9 29 8 67 -5 115 -39 249 -33 296 14 37 38 37 80 -3 158 -35
72 -69 102 -113 102 -20 0 -48 12 -74 31 -23 17 -59 33 -80 36 -32 4 -44 0
-81 -31 l-43 -36 -39 35 c-48 43 -89 47 -122 11z m163 -126 c29 0 48 8 73 30
19 17 39 30 44 30 5 0 28 -14 51 -31 23 -17 60 -33 81 -36 35 -5 41 -10 61
-53 12 -26 19 -53 16 -59 -11 -17 -144 -13 -191 6 -54 21 -114 28 -128 14 -18
-18 -54 -12 -86 15 -47 39 -54 58 -40 104 l12 39 34 -29 c25 -22 44 -30 73
-30z"/>
</g>
</svg>
